<svg width="50" height="50" viewBox="0 0 50 50" fill="none" xmlns="http://www.w3.org/2000/svg">
<g clip-path="url(#clip0_227_1305)">
<path d="M26.6094 3.18437C26.0738 3.14484 25.537 3.12503 25 3.125V0C25.6142 0.000299461 26.2281 0.0232317 26.8406 0.06875L26.6094 3.18437ZM32.8719 4.59062C31.8701 4.20408 30.8413 3.89177 29.7937 3.65625L30.4781 0.60625C31.675 0.875 32.8531 1.23125 33.9969 1.675L32.8719 4.59062ZM37.1531 6.80937C36.7063 6.5114 36.2487 6.22996 35.7812 5.96562L37.3219 3.24687C38.3903 3.8523 39.4129 4.53539 40.3812 5.29062L38.4594 7.75625C38.0357 7.42572 37.6 7.11092 37.1531 6.8125V6.80937ZM42.8844 12.4031C42.2662 11.5249 41.5842 10.6935 40.8437 9.91562L43.1062 7.75937C43.95 8.65 44.7312 9.60312 45.4406 10.6031L42.8844 12.4031ZM45.2094 16.6281C45.0042 16.1327 44.7812 15.6449 44.5406 15.1656L47.3312 13.7594C47.8831 14.8565 48.3531 15.9929 48.7375 17.1594L45.7687 18.1375C45.6008 17.6277 45.4142 17.1242 45.2094 16.6281ZM46.8656 24.4625C46.8403 23.3886 46.7359 22.3179 46.5531 21.2594L49.6312 20.7281C49.8406 21.9344 49.9625 23.1594 49.9937 24.3844L46.8687 24.4625H46.8656ZM46.4562 29.2687C46.5594 28.7375 46.6437 28.2094 46.7094 27.675L49.8125 28.0594C49.6624 29.2786 49.4222 30.485 49.0937 31.6687L46.0812 30.8344C46.225 30.3187 46.35 29.7969 46.4562 29.2687ZM43.4812 36.7031C44.0562 35.7969 44.5625 34.8469 45 33.8656L47.8562 35.1312C47.3562 36.2562 46.7781 37.3375 46.1219 38.375L43.4812 36.7031ZM40.4687 40.4687C40.85 40.0875 41.2156 39.6937 41.5625 39.2875L43.9312 41.3281C43.5301 41.7932 43.1121 42.2435 42.6781 42.6781L40.4687 40.4687Z" fill="#D35827"/>
<path d="M25.0022 3.125C21.4049 3.12526 17.8633 4.01264 14.6909 5.70856C11.5185 7.40447 8.81327 9.85656 6.81487 12.8476C4.81647 15.8387 3.58655 19.2765 3.23405 22.8564C2.88155 26.4364 3.41735 30.048 4.79399 33.3714C6.17064 36.6948 8.34563 39.6274 11.1263 41.9095C13.907 44.1916 17.2076 45.7527 20.7357 46.4546C24.2638 47.1564 27.9106 46.9774 31.353 45.9333C34.7954 44.8892 37.9272 43.0122 40.4709 40.4687L42.6803 42.6781C39.7732 45.5868 36.1936 47.7335 32.2586 48.9281C28.3235 50.1227 24.1546 50.3282 20.1211 49.5265C16.0877 48.7248 12.3142 46.9406 9.13516 44.3319C5.95607 41.7233 3.46949 38.3708 1.89574 34.5715C0.321986 30.7722 -0.290349 26.6434 0.112988 22.5508C0.516324 18.4583 1.92288 14.5284 4.20803 11.1094C6.49318 7.69042 9.58636 4.88784 13.2135 2.95001C16.8407 1.01217 20.8898 -0.00108979 25.0022 8.79556e-07V3.125Z" fill="#D35827"/>
<path d="M23.4375 9.375C23.8519 9.375 24.2493 9.53962 24.5424 9.83265C24.8354 10.1257 25 10.5231 25 10.9375V27.2188L35.15 33.0188C35.4993 33.2295 35.7524 33.5685 35.8551 33.9634C35.9578 34.3583 35.9019 34.7776 35.6995 35.1319C35.4971 35.4861 35.1641 35.7471 34.7718 35.8591C34.3795 35.9711 33.9589 35.9252 33.6 35.7313L22.6625 29.4813C22.4234 29.3447 22.2246 29.1473 22.0863 28.9091C21.948 28.6709 21.8751 28.4004 21.875 28.125V10.9375C21.875 10.5231 22.0396 10.1257 22.3326 9.83265C22.6257 9.53962 23.0231 9.375 23.4375 9.375Z" fill="#D35827"/>
</g>
<defs>
<clipPath id="clip0_227_1305">
<rect width="50" height="50" fill="white"/>
</clipPath>
</defs>
</svg>
