<svg width="50" height="44" viewBox="0 0 50 44" fill="none" xmlns="http://www.w3.org/2000/svg">
<path d="M35.7563 4.74375C35.9377 4.92512 36.0816 5.14046 36.1798 5.37745C36.278 5.61445 36.3285 5.86847 36.3285 6.125C36.3285 6.38153 36.278 6.63555 36.1798 6.87255C36.0816 7.10954 35.9377 7.32488 35.7563 7.50625L4.50625 38.7563C4.32486 38.9376 4.10952 39.0815 3.87253 39.1797C3.63553 39.2779 3.38152 39.3284 3.125 39.3284C2.86848 39.3284 2.61447 39.2779 2.37747 39.1797C2.14048 39.0815 1.92514 38.9376 1.74375 38.7563C1.56236 38.5749 1.41848 38.3595 1.32031 38.1225C1.22214 37.8855 1.17162 37.6315 1.17162 37.375C1.17162 37.1185 1.22214 36.8645 1.32031 36.6275C1.41848 36.3905 1.56236 36.1751 1.74375 35.9937L32.9937 4.74375C33.1751 4.56233 33.3905 4.41842 33.6275 4.32023C33.8645 4.22205 34.1185 4.17151 34.375 4.17151C34.6315 4.17151 34.8855 4.22205 35.1225 4.32023C35.3595 4.41842 35.5749 4.56233 35.7563 4.74375ZM7.8125 15.5C6.5693 15.5 5.37701 15.0061 4.49794 14.1271C3.61886 13.248 3.125 12.0557 3.125 10.8125C3.125 9.5693 3.61886 8.37701 4.49794 7.49794C5.37701 6.61886 6.5693 6.125 7.8125 6.125C9.0557 6.125 10.248 6.61886 11.1271 7.49794C12.0061 8.37701 12.5 9.5693 12.5 10.8125C12.5 12.0557 12.0061 13.248 11.1271 14.1271C10.248 15.0061 9.0557 15.5 7.8125 15.5ZM7.8125 18.625C9.8845 18.625 11.8716 17.8019 13.3368 16.3368C14.8019 14.8716 15.625 12.8845 15.625 10.8125C15.625 8.7405 14.8019 6.75336 13.3368 5.28823C11.8716 3.8231 9.8845 3 7.8125 3C5.7405 3 3.75336 3.8231 2.28823 5.28823C0.8231 6.75336 0 8.7405 0 10.8125C0 12.8845 0.8231 14.8716 2.28823 16.3368C3.75336 17.8019 5.7405 18.625 7.8125 18.625ZM29.6875 37.375C28.4443 37.375 27.252 36.8811 26.3729 36.0021C25.4939 35.123 25 33.9307 25 32.6875C25 31.4443 25.4939 30.252 26.3729 29.3729C27.252 28.4939 28.4443 28 29.6875 28C30.9307 28 32.123 28.4939 33.0021 29.3729C33.8811 30.252 34.375 31.4443 34.375 32.6875C34.375 33.9307 33.8811 35.123 33.0021 36.0021C32.123 36.8811 30.9307 37.375 29.6875 37.375ZM29.6875 40.5C31.7595 40.5 33.7466 39.6769 35.2118 38.2118C36.6769 36.7466 37.5 34.7595 37.5 32.6875C37.5 30.6155 36.6769 28.6284 35.2118 27.1632C33.7466 25.6981 31.7595 24.875 29.6875 24.875C27.6155 24.875 25.6284 25.6981 24.1632 27.1632C22.6981 28.6284 21.875 30.6155 21.875 32.6875C21.875 34.7595 22.6981 36.7466 24.1632 38.2118C25.6284 39.6769 27.6155 40.5 29.6875 40.5Z" fill="#D35827"/>
</svg>
