<svg width="26" height="44" viewBox="0 0 26 44" fill="none" xmlns="http://www.w3.org/2000/svg">
<path d="M0 30.5656C0.4625 35.775 4.72813 39.4719 11.2219 39.95V43.75H14.4812V39.95C21.575 39.3906 25.975 35.4562 25.975 29.6375C25.975 24.6688 23.0156 21.7937 16.7375 20.175L14.4812 19.5906V7.70937C17.9875 8.05313 20.3531 9.94063 20.95 12.7594H25.5437C25.025 7.75938 20.7312 4.17188 14.4812 3.775V0H11.2219V3.85313C5.1625 4.57188 1.00313 8.45312 1.00313 13.7156C1.00313 18.2594 4.02187 21.475 9.31875 22.8312L11.225 23.3375V35.9344C7.63438 35.4031 5.1625 33.4344 4.56562 30.5656H0ZM10.5969 18.5781C7.3375 17.7563 5.59687 16 5.59687 13.5281C5.59687 10.5781 7.79688 8.4 11.2219 7.81562V18.7375L10.5969 18.5813V18.5781ZM15.5688 24.4281C19.5906 25.4375 21.3562 27.1125 21.3562 29.9563C21.3562 33.3844 18.775 35.6687 14.4812 36.0156V24.1562L15.5688 24.425V24.4281Z" fill="#D35827"/>
</svg>
