<?xml version="1.0" standalone="no"?>
<!DOCTYPE svg PUBLIC "-//W3C//DTD SVG 20010904//EN"
 "http://www.w3.org/TR/2001/REC-SVG-20010904/DTD/svg10.dtd">
<svg version="1.0" xmlns="http://www.w3.org/2000/svg"
 width="512.000000pt" height="512.000000pt" viewBox="0 0 512.000000 512.000000"
 preserveAspectRatio="xMidYMid meet">

<g transform="translate(0.000000,512.000000) scale(0.100000,-0.100000)"
fill="#000000" stroke="none">
<path d="M3819 4467 c-37 -13 -84 -34 -105 -48 -33 -22 -54 -27 -124 -31 -72
-3 -94 -9 -148 -38 -76 -40 -105 -72 -177 -194 -53 -91 -63 -119 -47 -143 13
-20 563 -333 587 -333 28 0 41 15 97 115 71 125 91 213 69 308 l-9 37 104 0
104 0 38 -34 37 -34 0 -524 0 -523 -185 -31 c-943 -158 -1919 -166 -2860 -23
-225 34 -403 68 -664 126 -281 62 -305 62 -383 10 -93 -63 -125 -192 -72 -287
37 -67 95 -106 189 -126 l80 -17 19 -51 c149 -395 539 -1393 559 -1430 41 -75
126 -134 215 -151 l37 -7 0 -192 c0 -150 3 -196 14 -212 13 -17 30 -19 205
-22 l191 -3 25 25 c25 25 25 25 25 216 l0 190 920 0 920 0 0 -193 c0 -151 3
-197 14 -213 13 -18 28 -19 210 -19 174 0 197 2 213 18 16 15 18 41 21 211 l3
194 46 11 c99 25 178 91 218 181 11 24 142 359 290 744 l270 700 72 17 c92 23
121 38 166 88 76 84 76 208 -1 293 -73 81 -141 93 -302 54 l-95 -23 -5 506
c-5 379 -9 516 -19 546 -50 153 -167 271 -312 316 -49 15 -91 19 -222 19 -142
0 -170 -3 -228 -23z m463 -120 c72 -36 149 -119 180 -195 22 -56 23 -62 26
-564 l3 -507 -23 -6 c-13 -2 -42 -9 -65 -14 l-43 -9 0 512 c0 493 -1 513 -21
556 -25 56 -53 86 -104 113 -35 19 -58 22 -183 24 l-143 3 -51 44 -51 45 49
15 c37 12 87 15 209 13 153 -2 163 -3 217 -30z m-554 -93 c128 -64 171 -213
102 -350 -18 -35 -38 -68 -45 -74 -8 -6 -77 28 -220 111 -115 66 -212 122
-214 125 -7 7 39 89 73 131 68 82 203 107 304 57z m-3272 -1253 c173 -41 484
-102 609 -121 39 -6 82 -13 98 -16 l27 -6 0 -110 0 -111 -62 7 c-203 23 -843
156 -906 188 -45 23 -67 102 -41 149 12 23 67 59 90 59 9 0 92 -18 185 -39z
m4454 4 c16 -15 31 -40 34 -56 7 -38 -15 -93 -47 -113 -69 -46 -826 -189
-1267 -240 -386 -45 -992 -74 -1253 -61 l-147 7 0 109 0 109 318 0 c533 0 977
36 1497 120 186 30 564 106 695 140 90 23 134 19 170 -15z m-3334 -194 c94
-11 255 -25 357 -32 l187 -13 0 -198 0 -198 -410 0 -410 0 0 236 0 237 53 -7
c28 -3 129 -15 223 -25z m-892 -205 c94 -19 243 -46 331 -61 88 -14 163 -29
167 -33 4 -4 9 -167 10 -363 l3 -355 27 -41 c16 -24 44 -49 70 -62 43 -20 58
-21 416 -21 295 0 379 3 405 14 39 17 92 71 106 109 7 18 11 141 11 328 l0
299 308 0 c670 0 1295 63 1941 195 68 14 129 25 136 25 13 0 -487 -1311 -527
-1381 -12 -21 -40 -51 -62 -66 l-41 -28 -1405 -3 c-978 -2 -1416 0 -1442 8
-48 14 -94 53 -117 99 -16 32 -531 1357 -531 1367 0 7 23 4 194 -30z m1436
-416 l0 -70 -410 0 -410 0 0 70 0 70 410 0 410 0 0 -70z m0 -271 c0 -76 -2
-82 -29 -110 l-29 -29 -352 0 -352 0 -29 29 c-27 28 -29 34 -29 110 l0 81 410
0 410 0 0 -81z m-600 -1034 l0 -155 -115 0 -115 0 0 155 0 155 115 0 115 0 0
-155z m2300 0 l0 -155 -115 0 -115 0 0 155 0 155 115 0 115 0 0 -155z"/>
</g>
</svg>
