<?xml version="1.0" standalone="no"?>
<!DOCTYPE svg PUBLIC "-//W3C//DTD SVG 20010904//EN"
 "http://www.w3.org/TR/2001/REC-SVG-20010904/DTD/svg10.dtd">
<svg version="1.0" xmlns="http://www.w3.org/2000/svg"
 width="512.000000pt" height="512.000000pt" viewBox="0 0 512.000000 512.000000"
 preserveAspectRatio="xMidYMid meet">

<g transform="translate(0.000000,512.000000) scale(0.100000,-0.100000)"
fill="#000000" stroke="none">
<path d="M4074 5106 c-17 -13 -19 -29 -22 -140 l-4 -125 -36 -6 c-20 -4 -75
-18 -122 -33 -47 -14 -88 -26 -92 -27 -5 0 -34 45 -65 99 -65 112 -79 125
-120 110 -47 -16 -42 -51 21 -163 31 -53 56 -102 56 -107 0 -5 -19 -22 -42
-39 -22 -16 -62 -56 -89 -88 -27 -31 -50 -58 -53 -60 -2 -1 -49 24 -105 56
-114 66 -149 71 -165 24 -14 -40 -2 -54 100 -115 49 -29 95 -56 102 -60 10 -7
9 -18 -7 -55 -16 -36 -51 -176 -51 -201 0 -2 -57 -6 -126 -8 -111 -3 -127 -5
-140 -22 -8 -11 -14 -27 -14 -36 0 -9 6 -25 14 -36 13 -17 29 -19 140 -22 69
-2 126 -6 126 -8 0 -25 35 -164 50 -200 11 -25 20 -47 20 -49 0 -1 -42 -26
-92 -55 -114 -64 -128 -76 -128 -110 0 -66 45 -65 169 5 54 30 101 55 107 55
5 -1 26 -23 47 -50 21 -28 62 -69 91 -91 l53 -42 -59 -103 c-67 -117 -72 -152
-25 -168 41 -15 55 -2 118 108 31 53 59 99 62 102 2 2 25 -4 50 -15 36 -16
176 -51 201 -51 2 0 6 -57 8 -126 3 -111 5 -127 22 -140 25 -18 47 -18 72 0
17 13 19 29 22 140 l4 125 36 6 c32 5 179 48 207 61 6 2 35 -37 64 -88 30 -51
61 -101 69 -110 31 -36 92 -12 92 35 0 12 -25 65 -56 117 -31 52 -56 98 -57
101 -1 3 23 27 54 52 30 25 73 68 93 95 l38 50 102 -59 c55 -33 111 -59 123
-59 47 0 71 61 36 92 -10 9 -60 39 -111 68 -72 41 -92 56 -86 69 20 49 54 166
54 189 0 47 8 50 138 54 109 3 125 5 138 22 8 11 14 27 14 36 0 9 -6 25 -14
36 -13 17 -29 19 -138 22 -79 3 -126 8 -130 15 -4 7 -8 26 -8 42 0 17 -13 68
-29 115 -21 61 -26 87 -17 93 6 4 47 28 91 53 44 26 88 53 98 62 34 30 11 92
-35 92 -12 0 -67 -26 -123 -59 l-102 -58 -42 53 c-23 29 -66 72 -95 95 l-53
42 58 102 c33 56 59 111 59 123 0 46 -62 69 -92 35 -8 -10 -39 -60 -69 -111
-29 -51 -58 -90 -64 -88 -28 13 -175 56 -207 61 l-36 6 -4 125 c-3 111 -5 127
-22 140 -11 8 -27 14 -36 14 -9 0 -25 -6 -36 -14z m206 -402 c197 -58 357
-216 423 -417 15 -48 20 -89 20 -177 0 -88 -5 -129 -20 -177 -54 -164 -169
-301 -314 -372 -189 -93 -369 -93 -558 0 -163 80 -288 244 -326 424 -29 140
-12 267 56 404 78 159 243 287 419 326 79 18 221 13 300 -11z"/>
<path d="M1024 4879 c-18 -20 -18 -23 -1 -86 9 -36 16 -67 15 -69 -2 -1 -46
-18 -98 -38 -336 -129 -621 -391 -784 -721 -150 -304 -191 -633 -121 -969 15
-73 36 -106 67 -106 11 0 314 79 675 176 360 96 657 174 659 171 8 -8 375
-1389 371 -1394 -3 -2 -349 194 -769 436 -609 352 -774 442 -811 447 -98 14
-207 -75 -223 -183 -14 -94 31 -165 146 -231 l65 -38 75 -149 c80 -158 120
-226 205 -341 124 -167 272 -314 457 -451 l88 -65 0 -557 0 -557 23 -44 c73
-145 293 -145 367 1 11 21 20 51 20 67 0 23 7 32 38 46 114 55 1264 576 1272
576 4 0 286 -160 625 -356 340 -196 639 -366 665 -377 163 -69 333 130 250
294 -26 51 -40 59 -613 389 -251 145 -454 267 -450 270 5 4 244 114 533 244
289 131 540 250 559 265 49 38 71 86 71 151 -1 136 -114 239 -233 212 -23 -5
-341 -146 -707 -312 -366 -167 -670 -303 -675 -303 -10 0 -810 457 -827 472
-13 12 -410 1513 -401 1521 4 4 157 47 338 95 182 48 350 93 375 100 25 8 167
46 315 85 149 40 281 79 294 87 21 13 23 20 18 63 -3 26 -24 94 -47 150 -189
479 -603 817 -1120 916 -152 29 -443 23 -562 -12 -13 -4 -21 9 -38 64 -11 39
-27 73 -36 76 -28 11 -51 6 -70 -15z m595 -286 c214 -218 366 -465 460 -748
43 -131 78 -281 68 -291 -12 -12 -622 -173 -628 -166 -8 8 -328 1199 -331
1233 -3 27 27 36 162 48 189 18 172 23 269 -76z m266 20 c117 -36 307 -133
405 -207 211 -159 390 -399 471 -634 14 -39 15 -54 6 -57 -32 -11 -501 -134
-502 -132 -1 1 -16 63 -34 137 -78 323 -247 645 -457 872 -24 26 -44 50 -44
54 0 9 62 -4 155 -33z m-645 -633 c92 -344 166 -626 165 -628 -8 -9 -631 -170
-637 -164 -12 12 -75 244 -93 342 -9 52 -19 169 -22 260 -7 221 11 378 69 593
19 72 24 81 62 105 54 34 257 123 275 120 9 -2 68 -204 181 -628z m-661 288
c-31 -143 -42 -288 -36 -481 6 -205 27 -339 81 -519 19 -62 33 -114 31 -116
-6 -7 -479 -132 -496 -132 -20 0 -24 18 -40 177 -34 339 77 697 301 975 58 72
161 178 173 178 2 0 -4 -37 -14 -82z m471 -2126 c443 -255 924 -533 1070 -617
1436 -827 2058 -1189 2073 -1206 38 -46 4 -138 -59 -153 -32 -8 -16 -17 -734
398 -322 187 -641 371 -710 411 -381 219 -1383 798 -1490 860 -69 40 -327 190
-575 332 -542 313 -492 282 -506 315 -25 61 47 150 106 132 11 -4 382 -216
825 -472z m-327 -161 l317 -183 0 -195 0 -194 -32 22 c-165 114 -348 306 -477
498 -64 95 -150 247 -135 239 5 -2 152 -87 327 -187z m3541 -232 c34 -40 35
-97 4 -126 -20 -18 -1101 -517 -1150 -530 -15 -4 -192 89 -203 107 -2 4 278
135 623 293 442 202 638 286 664 286 29 1 42 -5 62 -30z m-3011 -74 l87 -50 0
-727 0 -727 -24 -28 c-20 -23 -32 -28 -71 -28 -39 0 -51 5 -71 28 l-24 28 0
780 c0 430 4 779 8 777 5 -1 48 -25 95 -53z m679 -392 c208 -120 378 -220 378
-223 0 -13 -71 -30 -126 -30 -198 1 -470 52 -666 126 l-68 26 0 190 0 190 53
-31 c28 -17 222 -128 429 -248z m-361 -263 c105 -34 243 -65 362 -82 l89 -13
-269 -122 c-147 -67 -276 -125 -285 -129 -17 -6 -18 7 -18 191 0 184 1 197 18
190 9 -4 56 -20 103 -35z m969 -88 l100 -59 -577 -263 c-318 -145 -586 -265
-596 -268 -16 -4 -17 4 -15 99 l3 103 485 222 c267 122 489 223 493 223 4 1
53 -25 107 -57z"/>
<path d="M1212 1964 c-44 -30 -18 -94 38 -94 31 0 50 23 50 59 0 19 -34 51
-55 51 -6 0 -21 -7 -33 -16z"/>
<path d="M2736 1077 c-21 -16 -24 -60 -6 -82 20 -24 67 -19 85 9 35 53 -28
110 -79 73z"/>
<path d="M1200 389 c-17 -30 -8 -62 21 -78 24 -13 29 -13 53 2 27 18 33 45 16
78 -15 27 -75 26 -90 -2z"/>
</g>
</svg>
