<?xml version="1.0" standalone="no"?>
<!DOCTYPE svg PUBLIC "-//W3C//DTD SVG 20010904//EN"
 "http://www.w3.org/TR/2001/REC-SVG-20010904/DTD/svg10.dtd">
<svg version="1.0" xmlns="http://www.w3.org/2000/svg"
 width="512.000000pt" height="512.000000pt" viewBox="0 0 512.000000 512.000000"
 preserveAspectRatio="xMidYMid meet">

<g transform="translate(0.000000,512.000000) scale(0.100000,-0.100000)"
fill="#000000" stroke="none">
<path d="M3248 4945 c-235 -118 -353 -183 -363 -199 -14 -21 -16 -51 -13 -181
3 -141 5 -158 22 -171 17 -12 99 -14 483 -14 l463 0 0 -930 0 -930 -71 75
c-39 41 -78 75 -85 75 -12 0 -14 52 -14 295 0 282 -1 296 -20 315 -20 20 -33
20 -1063 20 -999 0 -1045 -1 -1060 -18 -15 -16 -17 -53 -17 -314 0 -279 -1
-296 -19 -301 -20 -5 -930 -966 -945 -998 -12 -25 9 -65 38 -73 11 -3 96 -6
189 -6 l167 0 0 -778 c0 -742 1 -780 18 -795 17 -16 145 -17 1630 -17 1599 0
1612 0 1632 20 20 20 20 33 20 795 l0 775 171 0 c101 0 178 4 190 11 27 14 39
49 26 74 -5 11 -81 95 -169 186 l-158 167 0 1176 0 1176 205 0 c192 0 206 1
225 20 19 19 20 33 20 353 0 311 -1 335 -18 350 -17 15 -71 17 -578 16 l-559
0 -347 -174z m1102 -20 l0 -85 60 0 60 0 0 85 0 86 83 -3 82 -3 0 -255 0 -255
-822 -3 -823 -2 0 100 0 100 318 159 317 160 363 0 362 1 0 -85z m-170 -660
l0 -116 -112 3 -113 3 -3 113 -3 112 116 0 115 0 0 -115z m0 -1167 c0 -535 -4
-938 -9 -932 -4 5 -56 60 -115 122 l-106 114 0 819 0 819 115 0 115 0 0 -942z
m-625 -168 l0 -255 -57 -3 -58 -3 0 182 c0 156 -2 185 -17 201 -15 17 -54 18
-833 18 -689 0 -819 -2 -836 -14 -17 -13 -19 -30 -22 -200 l-4 -186 -54 0 -54
0 0 260 0 260 968 -2 967 -3 0 -255z m-225 -115 l0 -145 -740 0 -740 0 0 145
0 145 740 0 740 0 0 -145z m660 -621 c190 -202 369 -393 398 -425 l54 -59
-756 0 -756 0 0 92 c0 138 27 128 -346 128 -366 0 -334 12 -334 -129 l0 -91
-756 0 -755 0 18 23 c10 13 188 204 397 425 l378 402 1057 0 1056 0 345 -366z
m-1170 -429 l0 -55 -230 0 -230 0 0 55 0 55 230 0 230 0 0 -55z m-570 -273 c0
-63 4 -102 12 -110 9 -9 95 -12 324 -12 271 0 315 2 328 16 12 12 16 37 16
110 l0 94 595 0 595 0 0 -740 0 -740 -850 0 -850 0 0 518 c0 452 -2 520 -16
540 l-15 22 -366 0 c-327 0 -368 -2 -385 -17 -17 -15 -18 -45 -18 -540 l0
-523 -282 2 -283 3 -3 738 -2 737 600 0 600 0 0 -98z m570 43 l0 -55 -230 0
-230 0 0 55 0 55 230 0 230 0 0 -55z m-520 -940 l0 -485 -280 0 -280 0 0 485
0 485 280 0 280 0 0 -485z"/>
<path d="M4350 4665 l0 -55 60 0 60 0 0 55 0 55 -60 0 -60 0 0 -55z"/>
<path d="M2872 968 l3 -113 113 -3 112 -3 0 116 0 115 -115 0 -116 0 3 -112z"/>
<path d="M3212 968 l3 -113 113 -3 112 -3 0 116 0 115 -115 0 -116 0 3 -112z"/>
<path d="M2870 625 l0 -115 115 0 115 0 0 115 0 115 -115 0 -115 0 0 -115z"/>
<path d="M3212 628 l3 -113 113 -3 112 -3 0 116 0 115 -115 0 -116 0 3 -112z"/>
<path d="M1797 624 c-4 -4 -7 -32 -7 -61 l0 -54 58 3 57 3 0 55 0 55 -50 3
c-28 2 -54 0 -58 -4z"/>
<path d="M2530 4950 l0 -61 58 3 57 3 0 55 0 55 -57 3 -58 3 0 -61z"/>
<path d="M2228 4983 c-34 -4 -38 -7 -38 -32 0 -16 3 -42 6 -59 6 -31 7 -31 53
-25 25 3 50 9 54 13 4 4 5 30 1 59 -5 39 -10 51 -23 49 -9 -1 -33 -3 -53 -5z"/>
<path d="M1895 4906 c-36 -11 -40 -15 -38 -43 2 -17 7 -43 12 -57 l10 -25 48
16 c26 9 50 17 52 19 8 6 -24 104 -33 103 -6 0 -29 -6 -51 -13z"/>
<path d="M1558 4779 l-38 -19 22 -48 c13 -26 23 -48 24 -50 1 -3 96 37 102 42
1 2 -7 24 -20 50 -24 51 -36 54 -90 25z"/>
<path d="M1270 4619 c-25 -16 -44 -34 -42 -40 1 -5 14 -28 27 -50 l26 -40 44
31 c25 17 45 33 45 36 0 2 -13 24 -28 49 l-28 44 -44 -30z"/>
<path d="M985 4407 l-39 -34 33 -41 c18 -23 36 -42 39 -42 4 1 25 16 46 34
l39 33 -33 42 c-18 22 -36 41 -40 41 -4 0 -24 -15 -45 -33z"/>
<path d="M388 4361 c-104 -33 -209 -111 -268 -196 -34 -50 -38 -85 -12 -108
16 -15 45 -17 195 -17 l177 0 0 -115 0 -115 -176 0 c-102 0 -183 -4 -195 -10
-43 -24 -5 -130 77 -214 66 -68 197 -116 315 -116 166 0 338 98 410 234 l24
46 460 0 460 0 25 -47 c92 -176 316 -268 528 -218 122 29 217 100 265 199 32
64 34 87 9 109 -16 15 -47 17 -225 17 l-207 0 0 115 0 115 208 0 c190 0 210 2
225 18 26 29 20 55 -26 119 -178 241 -505 270 -707 64 -30 -31 -64 -75 -74
-99 l-19 -42 -461 0 -461 0 -25 47 c-94 177 -332 274 -522 214z m242 -118 c91
-31 155 -93 200 -195 11 -26 29 -52 40 -58 21 -11 1016 -15 1045 -4 10 4 30
35 46 70 82 183 293 260 465 170 49 -26 94 -59 94 -70 0 -3 -80 -6 -179 -6
-154 0 -180 -2 -192 -17 -11 -12 -14 -60 -14 -208 0 -148 3 -196 14 -208 12
-15 39 -17 209 -17 l196 0 -27 -28 c-41 -42 -107 -72 -182 -81 -176 -21 -311
50 -383 201 -17 36 -38 68 -47 72 -28 10 -1024 7 -1045 -4 -10 -5 -31 -38 -48
-72 -69 -147 -204 -217 -377 -197 -78 10 -139 36 -180 79 l-29 30 167 0 c160
0 166 1 181 22 13 18 16 56 16 203 0 241 14 225 -188 225 l-157 1 35 29 c101
84 214 104 340 63z"/>
<path d="M4568 3899 l-47 -30 27 -45 c15 -24 31 -44 37 -44 12 0 85 48 85 56
0 5 -51 94 -53 94 -1 0 -23 -14 -49 -31z"/>
<path d="M4738 3604 c-27 -13 -48 -27 -48 -30 0 -4 39 -85 45 -92 4 -5 95 39
95 47 0 9 -40 101 -43 101 -1 -1 -23 -12 -49 -26z"/>
<path d="M241 3249 c-7 -27 -12 -51 -10 -53 9 -7 74 -26 89 -26 20 0 49 85 34
99 -11 10 -72 31 -89 31 -6 0 -17 -23 -24 -51z"/>
<path d="M4855 3285 c-22 -7 -40 -17 -39 -21 1 -5 7 -30 14 -56 l12 -46 52 15
c28 8 53 17 55 18 8 8 -32 105 -42 104 -7 -1 -30 -7 -52 -14z"/>
<path d="M167 2908 c-4 -28 -5 -53 -4 -54 1 -2 26 -6 54 -10 57 -7 53 -12 67
72 5 30 3 32 -32 38 -76 12 -79 11 -85 -46z"/>
<path d="M4917 2953 c-27 -4 -27 -5 -21 -56 4 -29 8 -54 10 -56 2 -2 28 0 58
3 l55 7 -5 32 c-14 85 -11 83 -97 70z"/>
<path d="M140 2560 l0 -61 58 3 57 3 0 55 0 55 -57 3 -58 3 0 -61z"/>
<path d="M4920 2560 l0 -60 55 0 55 0 0 60 0 60 -55 0 -55 0 0 -60z"/>
<path d="M187 2273 c-27 -4 -27 -5 -21 -56 4 -29 8 -54 10 -56 2 -2 28 0 58 3
l55 7 -5 32 c-14 85 -11 83 -97 70z"/>
<path d="M4897 2228 c-4 -28 -5 -53 -3 -55 2 -2 26 -6 54 -10 56 -6 52 -11 66
73 5 30 3 32 -32 38 -76 12 -79 11 -85 -46z"/>
<path d="M4830 1912 c-7 -26 -13 -51 -14 -56 -1 -12 95 -39 104 -29 8 10 33
94 28 98 -2 2 -26 10 -54 18 l-52 15 -12 -46z"/>
<path d="M265 1938 c-40 -14 -39 -10 -24 -67 14 -55 18 -57 70 -40 50 17 53
23 39 73 -14 50 -26 55 -85 34z"/>
<path d="M390 1619 c-24 -11 -46 -21 -48 -23 -7 -8 43 -96 55 -96 8 0 31 9 53
20 l39 20 -21 50 c-11 27 -23 50 -27 50 -3 0 -26 -10 -51 -21z"/>
<path d="M4712 1595 c-12 -25 -22 -48 -22 -50 0 -3 22 -16 50 -30 l49 -25 21
46 c11 26 20 50 20 55 0 6 -83 49 -94 49 -1 0 -12 -20 -24 -45z"/>
<path d="M543 1312 l-42 -28 28 -43 c16 -23 32 -43 37 -43 16 0 84 46 84 57 0
14 -49 85 -58 85 -4 0 -26 -13 -49 -28z"/>
<path d="M4548 1296 l-27 -45 22 -14 c12 -7 34 -21 48 -31 l27 -17 26 45 c14
24 26 47 26 50 0 8 -73 56 -85 56 -6 0 -22 -20 -37 -44z"/>
</g>
</svg>
