<?xml version="1.0" standalone="no"?>
<!DOCTYPE svg PUBLIC "-//W3C//DTD SVG 20010904//EN"
 "http://www.w3.org/TR/2001/REC-SVG-20010904/DTD/svg10.dtd">
<svg version="1.0" xmlns="http://www.w3.org/2000/svg"
 width="512.000000pt" height="512.000000pt" viewBox="0 0 512.000000 512.000000"
 preserveAspectRatio="xMidYMid meet">

<g transform="translate(0.000000,512.000000) scale(0.100000,-0.100000)"
fill="#000000" stroke="none">
<path d="M77 5042 c-15 -17 -17 -78 -17 -676 0 -434 4 -664 10 -677 10 -19 31
-19 858 -19 646 0 851 3 860 12 9 9 12 174 12 679 0 594 -2 669 -16 683 -14
14 -105 16 -853 16 -799 0 -839 -1 -854 -18z m793 -677 l0 -585 -348 2 -347 3
-3 570 c-1 314 0 576 3 583 3 9 83 12 350 12 l345 0 0 -585z m818 -2 l2 -583
-350 0 -350 0 0 585 0 585 348 -2 347 -3 3 -582z"/>
<path d="M717 4462 c-24 -26 -24 -173 -1 -196 18 -18 47 -20 75 -6 17 9 19 22
19 99 0 72 -3 91 -18 104 -24 22 -55 21 -75 -1z"/>
<path d="M1067 4462 c-13 -14 -17 -38 -17 -100 0 -88 12 -112 55 -112 43 0 55
24 55 114 0 68 -3 86 -18 99 -24 22 -55 21 -75 -1z"/>
<path d="M2114 5046 c-18 -14 -19 -35 -24 -630 l-5 -616 -255 -228 -255 -228
-3 -138 c-2 -119 0 -141 14 -157 16 -18 54 -19 974 -19 914 0 958 1 973 18 14
15 17 42 17 154 l0 136 -63 58 c-35 33 -151 137 -260 233 l-197 175 -2 614
c-3 594 -4 614 -22 628 -29 21 -863 21 -892 0z m796 -698 c3 -379 9 -600 15
-606 6 -5 98 -87 205 -182 107 -95 197 -177 198 -182 2 -4 -203 -8 -455 -8
-344 0 -462 -3 -471 -12 -20 -20 -15 -76 7 -88 13 -6 194 -10 520 -10 l501 0
0 -60 0 -60 -870 0 -870 0 0 60 0 60 242 0 c211 0 244 2 260 17 22 20 23 56 2
77 -13 13 -46 16 -210 16 -107 0 -194 3 -193 8 0 4 73 71 162 149 89 79 183
162 210 186 l47 44 0 590 c0 324 3 593 7 596 4 4 160 6 347 5 l341 -3 5 -597z"/>
<path d="M3336 5044 c-14 -14 -16 -89 -16 -683 0 -505 3 -670 12 -679 9 -9
213 -12 854 -12 753 0 844 2 858 16 14 14 16 89 16 678 0 630 -1 664 -18 679
-17 16 -91 17 -855 17 -746 0 -837 -2 -851 -16z m794 -679 l0 -585 -350 0
-350 0 0 578 c0 318 3 582 7 585 3 4 161 7 350 7 l343 0 0 -585z m815 0 l0
-580 -347 -3 -348 -2 0 585 0 585 348 -2 347 -3 0 -580z"/>
<path d="M3977 4462 c-13 -14 -17 -38 -17 -100 0 -88 12 -112 55 -112 43 0 55
24 55 114 0 68 -3 86 -18 99 -24 22 -55 21 -75 -1z"/>
<path d="M4326 4464 c-12 -12 -16 -37 -16 -104 0 -78 2 -91 19 -100 29 -15 56
-12 74 8 25 28 24 172 -1 195 -23 21 -56 22 -76 1z"/>
<path d="M4650 2723 c-77 -29 -110 -92 -110 -208 0 -104 9 -125 53 -125 49 0
57 15 57 101 0 62 4 81 21 103 24 31 52 33 79 6 19 -19 20 -33 20 -290 l0
-270 -672 0 -673 0 3 85 3 85 99 0 c93 0 100 1 118 25 23 29 19 59 -11 80 -18
13 -88 15 -438 15 -396 0 -418 -1 -440 -19 -23 -18 -24 -25 -24 -145 l0 -126
-188 0 c-176 0 -189 1 -182 18 12 32 25 115 25 163 l0 49 38 0 c94 0 98 104 5
117 -39 5 -41 7 -46 46 -3 23 -14 47 -23 54 -14 10 -92 13 -330 13 -351 0
-344 1 -344 -71 0 -38 -1 -39 -34 -39 -38 0 -86 -33 -86 -59 0 -37 29 -61 76
-61 l44 0 0 -80 c0 -48 6 -95 14 -115 l15 -35 -351 0 c-334 0 -350 1 -336 18
53 60 82 186 76 329 -4 111 -6 113 -157 113 l-115 0 47 48 c26 26 47 57 47 68
0 26 -19 50 -48 59 -19 6 -37 -7 -116 -84 l-92 -91 -116 0 c-93 0 -120 -3
-132 -16 -13 -12 -16 -40 -16 -143 0 -140 12 -198 54 -262 l26 -39 -193 0
c-158 0 -197 -3 -215 -16 l-22 -15 0 -958 c0 -915 1 -959 18 -974 17 -15 66
-17 503 -17 525 0 522 0 521 53 0 58 16 57 -476 59 l-451 3 -3 58 -3 57 2391
0 2391 0 -3 -58 -3 -57 -1790 -2 c-1669 -3 -1791 -4 -1802 -20 -18 -24 -16
-57 5 -76 17 -16 159 -17 1844 -17 1755 0 1826 1 1841 18 15 16 17 48 17 244
0 205 -2 226 -18 241 -21 19 -45 21 -73 7 -16 -9 -19 -22 -19 -85 l0 -75 -295
0 -295 0 0 465 0 465 293 -2 292 -3 3 -305 c2 -273 4 -306 19 -318 24 -17 57
-15 76 6 15 17 17 77 17 650 0 734 10 672 -105 672 l-65 0 0 269 c0 173 -4
280 -11 302 -14 40 -53 85 -91 105 -27 14 -109 18 -138 7z m-3665 -428 c-1
-72 -5 -98 -23 -131 -41 -80 -115 -124 -207 -124 -105 0 -190 63 -220 164 -15
51 -20 167 -8 180 4 3 108 5 232 4 l226 -3 0 -90z m1283 -35 c3 -135 -5 -168
-46 -200 -22 -18 -41 -20 -178 -20 -227 0 -237 8 -242 198 -2 67 -1 129 2 137
5 13 38 15 233 13 l228 -3 3 -125z m1052 -113 c0 -109 4 -107 -232 -107 -242
0 -238 -2 -238 102 l0 68 235 0 235 0 0 -63z m-1870 -577 l0 -350 -637 2 -638
3 -3 348 -2 347 640 0 640 0 0 -350z m2100 -405 l0 -755 -115 0 -115 0 0 178
c0 198 -6 222 -60 222 -47 0 -60 -22 -60 -101 l0 -69 -640 0 -640 0 0 350 0
350 640 0 640 0 0 -185 c0 -172 1 -186 20 -205 21 -21 47 -25 66 -12 29 19 34
56 34 259 0 173 -3 212 -16 231 l-15 22 -729 0 -729 0 -15 -22 c-14 -20 -16
-86 -16 -520 l0 -498 -115 0 -115 0 0 755 0 755 990 0 990 0 0 -755z m1398
523 l-3 -233 -637 -3 -638 -2 0 235 0 235 640 0 640 0 -2 -232z m-698 -813 l0
-465 -290 0 -290 0 0 465 0 465 290 0 290 0 0 -465z m-2800 -115 l0 -350 -640
0 -640 0 0 343 c0 189 3 347 7 350 3 4 291 7 640 7 l633 0 0 -350z m1750 -295
l0 -55 -640 0 -640 0 0 55 0 55 640 0 640 0 0 -55z"/>
<path d="M660 1610 c-11 -11 -20 -29 -20 -40 0 -11 9 -29 20 -40 18 -18 33
-20 155 -20 122 0 137 2 155 20 11 11 20 29 20 40 0 11 -9 29 -20 40 -18 18
-33 20 -155 20 -122 0 -137 -2 -155 -20z"/>
<path d="M2025 1847 c-43 -20 -93 -80 -101 -122 -31 -170 171 -282 292 -161
78 78 65 200 -28 269 -34 25 -121 33 -163 14z m113 -125 c27 -35 1 -92 -43
-92 -54 0 -74 83 -26 106 27 14 50 9 69 -14z"/>
<path d="M2478 1840 c-52 -28 -81 -73 -86 -137 -5 -64 9 -103 54 -143 48 -41
103 -56 154 -41 49 14 103 60 120 101 18 44 8 130 -19 169 -48 67 -149 90
-223 51z m128 -125 c13 -21 15 -31 6 -50 -22 -48 -95 -41 -108 11 -14 57 69
89 102 39z"/>
<path d="M2955 1846 c-17 -7 -45 -29 -62 -49 -82 -94 -34 -244 88 -277 162
-44 286 151 176 277 -53 60 -133 79 -202 49z m113 -119 c17 -13 15 -57 -5 -79
-35 -39 -98 -7 -91 48 5 46 56 62 96 31z"/>
<path d="M2163 1194 c-15 -24 -15 -29 -2 -53 l15 -26 384 0 384 0 15 26 c13
24 13 29 -2 53 l-17 26 -380 0 -380 0 -17 -26z"/>
<path d="M4230 1744 c-41 -16 -53 -70 -22 -97 28 -25 172 -24 195 1 21 23 22
52 3 77 -11 16 -28 20 -88 22 -40 1 -80 0 -88 -3z"/>
<path d="M4090 970 c-16 -16 -20 -33 -20 -93 0 -85 16 -117 59 -117 47 0 61
26 61 113 0 83 -17 117 -60 117 -11 0 -29 -9 -40 -20z"/>
<path d="M656 794 c-21 -21 -20 -57 2 -77 15 -14 42 -17 160 -17 134 0 142 1
156 22 21 29 20 51 -2 71 -27 24 -293 25 -316 1z"/>
<path d="M4440 970 c-16 -16 -20 -33 -20 -93 0 -86 16 -117 60 -117 44 0 60
31 60 117 0 79 -18 113 -60 113 -11 0 -29 -9 -40 -20z"/>
</g>
</svg>
