<?xml version="1.0" standalone="no"?>
<!DOCTYPE svg PUBLIC "-//W3C//DTD SVG 20010904//EN"
 "http://www.w3.org/TR/2001/REC-SVG-20010904/DTD/svg10.dtd">
<svg version="1.0" xmlns="http://www.w3.org/2000/svg"
 width="512.000000pt" height="512.000000pt" viewBox="0 0 512.000000 512.000000"
 preserveAspectRatio="xMidYMid meet">

<g transform="translate(0.000000,512.000000) scale(0.100000,-0.100000)"
fill="#000000" stroke="none">
<path d="M1937 4999 c-31 -12 -44 -47 -28 -77 8 -14 25 -20 73 -25 135 -13
213 -64 286 -187 36 -59 42 -65 72 -65 30 0 36 5 64 58 63 117 154 181 277
193 75 8 89 16 89 54 0 49 -44 65 -139 49 -88 -14 -176 -61 -240 -128 l-54
-57 -51 54 c-78 83 -159 124 -266 135 -30 3 -67 1 -83 -4z"/>
<path d="M960 4978 c-135 -21 -271 -134 -348 -289 l-43 -86 -76 -6 c-282 -21
-441 -302 -338 -599 l14 -42 -45 -48 c-67 -72 -97 -145 -102 -248 -5 -110 10
-181 60 -282 50 -99 149 -207 239 -261 74 -44 106 -45 129 -5 20 37 9 52 -71
100 -263 157 -339 510 -142 653 24 16 45 40 49 51 3 13 -6 52 -22 95 -22 61
-27 92 -28 170 -1 87 2 100 29 154 54 106 148 155 296 155 49 0 80 4 87 13 6
6 20 39 31 71 103 293 374 392 558 204 51 -53 107 -144 129 -212 9 -28 21 -56
26 -62 5 -7 51 -14 111 -16 85 -3 110 -8 152 -30 63 -33 98 -69 127 -133 35
-76 33 -212 -5 -317 -19 -52 -25 -83 -19 -94 5 -8 31 -32 58 -53 74 -56 107
-127 111 -244 3 -95 13 -117 53 -117 35 0 53 26 58 84 10 120 -34 245 -115
328 l-45 46 17 49 c26 73 31 226 10 299 -51 180 -199 293 -381 294 l-52 0 -22
55 c-30 74 -109 185 -162 228 -58 47 -137 85 -190 92 -24 4 -52 8 -63 9 -11 2
-45 -1 -75 -6z"/>
<path d="M3516 4396 c-132 -49 -174 -208 -95 -356 36 -68 137 -168 209 -206
42 -23 43 -23 79 -5 68 35 159 110 200 164 105 138 95 295 -23 375 -39 26 -58
32 -100 32 -28 0 -64 -7 -80 -15 -26 -14 -32 -14 -52 0 -34 22 -94 27 -138 11z
m84 -106 c4 0 17 -16 29 -35 29 -49 72 -49 103 0 28 43 52 52 83 31 53 -35 71
-104 46 -169 -14 -35 -94 -121 -148 -158 l-42 -29 -70 65 c-38 37 -79 85 -90
109 -24 48 -27 110 -7 145 15 28 55 52 74 46 8 -3 17 -5 22 -5z"/>
<path d="M984 4326 c-17 -13 -19 -31 -24 -214 l-5 -199 -120 108 c-87 80 -126
109 -145 109 -34 0 -50 -17 -50 -52 0 -23 27 -51 165 -175 l165 -148 0 -189 0
-189 -22 19 c-13 11 -66 58 -118 105 -119 108 -133 116 -166 94 -16 -10 -24
-25 -24 -44 0 -25 24 -50 165 -176 l165 -147 0 -190 0 -189 -301 -357 c-166
-196 -306 -367 -311 -379 -8 -17 -7 -28 6 -48 15 -22 23 -25 81 -25 l65 0 0
-474 c0 -418 2 -476 16 -490 21 -21 57 -20 77 2 15 17 17 65 17 490 l0 472
1000 0 1000 0 0 -965 0 -965 -1158 0 -1158 0 -23 73 c-13 39 -45 128 -72 196
-27 68 -47 126 -44 129 11 11 101 -34 167 -84 39 -30 74 -54 78 -54 21 0 50
35 50 60 0 28 -46 307 -56 343 -14 48 117 -12 190 -87 36 -37 72 -90 110 -165
52 -101 59 -111 85 -111 33 0 50 17 86 90 68 136 166 243 251 276 24 9 47 14
50 11 3 -3 -8 -85 -25 -183 -17 -97 -29 -185 -25 -196 3 -11 17 -24 31 -29 28
-10 28 -10 118 61 47 38 130 78 140 68 2 -2 -16 -54 -41 -116 -49 -120 -49
-145 0 -158 35 -8 59 9 75 53 7 21 40 96 73 168 49 107 57 133 49 152 -6 12
-21 25 -34 28 -33 9 -141 -12 -212 -40 -32 -14 -61 -22 -63 -20 -2 2 5 60 17
128 24 144 26 178 9 195 -27 27 -161 3 -252 -46 -65 -34 -153 -122 -202 -202
-33 -54 -40 -60 -49 -45 -105 177 -225 271 -378 298 -78 13 -115 5 -123 -28
-5 -19 20 -195 41 -292 l5 -22 -55 25 c-79 36 -206 61 -238 47 -13 -6 -26 -20
-29 -30 -3 -11 23 -88 58 -172 35 -83 77 -190 94 -236 l29 -85 -74 0 c-62 0
-79 -4 -95 -20 -24 -24 -25 -38 -4 -68 l15 -22 2504 0 2504 0 15 22 c21 30 20
44 -4 68 -19 19 -33 20 -250 20 l-230 0 0 304 0 305 28 20 c34 24 111 56 118
48 3 -2 -10 -89 -28 -192 l-32 -188 23 -18 c33 -27 44 -24 96 21 78 68 198
126 182 89 -77 -183 -86 -210 -77 -234 12 -32 54 -43 79 -21 10 9 27 38 36 64
10 26 43 100 73 164 54 116 54 118 37 144 -16 26 -20 26 -81 20 -36 -4 -95
-18 -132 -32 -37 -14 -74 -28 -83 -30 -14 -5 -12 14 10 145 19 114 23 155 15
169 -18 28 -91 27 -180 -3 -42 -14 -78 -24 -80 -22 -2 2 -3 265 -2 584 l3 581
55 -67 c31 -37 65 -67 77 -69 24 -4 63 29 63 53 0 8 -249 313 -552 677 l-553
663 -1162 3 -1162 2 -126 -150 c-70 -82 -129 -150 -131 -150 -2 0 -4 55 -4
123 l0 122 160 140 c88 77 163 148 166 158 3 10 -2 29 -10 42 -31 46 -58 34
-195 -87 l-126 -111 -3 174 c-1 96 0 183 3 194 3 11 78 83 165 159 88 77 161
147 161 155 3 44 -17 71 -53 71 -9 0 -74 -49 -142 -110 -69 -60 -127 -110
-130 -110 -3 0 -6 89 -6 198 0 180 -2 200 -18 215 -23 21 -42 21 -68 3z m1004
-1163 c-149 -171 -558 -667 -558 -676 0 -25 31 -57 55 -57 30 0 10 -22 363
398 l297 352 307 0 c170 0 308 -2 308 -5 0 -3 -192 -235 -426 -515 l-426 -510
-689 0 c-570 0 -689 2 -682 13 4 8 198 239 431 515 l423 502 306 0 c291 0 305
-1 291 -17z m1522 12 c0 -3 -194 -235 -432 -515 l-432 -510 -293 0 c-242 0
-293 2 -286 13 4 8 197 239 427 515 l420 502 298 0 c164 0 298 -2 298 -5z
m554 -530 l396 -470 0 -1032 0 -1033 -215 0 -215 0 0 580 0 581 -25 24 -24 25
-386 0 -386 0 -24 -25 -25 -24 0 -443 c0 -336 3 -449 13 -468 14 -29 67 -39
85 -17 8 10 13 136 14 438 l3 424 323 3 322 2 0 -550 0 -550 -595 0 -595 0 0
985 0 986 453 534 c425 502 453 533 469 517 9 -9 195 -228 412 -487z"/>
<path d="M3562 2524 c-29 -7 -62 -19 -74 -25 -42 -23 -111 -95 -136 -144 -24
-44 -27 -62 -27 -145 0 -83 3 -101 27 -145 32 -62 104 -130 166 -158 73 -33
190 -30 264 6 276 135 237 535 -59 612 -69 18 -92 18 -161 -1z m194 -129 c25
-14 57 -45 72 -67 24 -36 27 -51 27 -119 0 -70 -3 -82 -30 -121 -35 -50 -120
-98 -173 -98 -126 0 -221 94 -222 219 0 170 179 272 326 186z"/>
<path d="M3620 890 c-11 -11 -20 -27 -20 -35 0 -25 38 -55 70 -55 l30 0 0 -80
0 -80 -33 0 c-44 0 -72 -29 -63 -65 9 -34 47 -48 120 -43 84 6 86 11 86 190 0
182 -3 188 -105 188 -52 0 -69 -4 -85 -20z"/>
<path d="M4485 3516 c-49 -21 -101 -87 -115 -145 -23 -95 10 -195 95 -289 55
-61 164 -142 191 -142 27 0 151 85 206 142 101 104 130 230 77 333 -49 96
-165 143 -241 98 -32 -19 -34 -19 -63 -1 -35 21 -106 23 -150 4z m109 -112 c9
-8 16 -20 16 -24 0 -17 49 -42 69 -35 11 3 29 21 40 40 23 39 52 45 89 19 28
-19 52 -65 52 -99 0 -62 -68 -155 -158 -217 l-43 -30 -32 25 c-87 66 -157 166
-157 225 0 33 25 88 47 101 26 15 59 13 77 -5z"/>
<path d="M604 3044 c-22 -33 -9 -74 30 -93 25 -12 31 -11 55 6 53 40 31 113
-35 113 -25 0 -38 -7 -50 -26z"/>
<path d="M856 1804 c-14 -13 -16 -55 -16 -305 0 -181 4 -298 10 -310 10 -18
24 -19 314 -19 270 0 305 2 317 17 11 13 14 75 14 308 0 233 -3 295 -14 308
-12 15 -46 17 -312 17 -257 0 -300 -2 -313 -16z m532 -311 l-3 -218 -217 -3
-218 -2 0 220 0 220 220 0 220 0 -2 -217z"/>
<path d="M1752 1808 c-17 -17 -17 -609 0 -626 17 -17 609 -17 626 0 9 9 12 93
12 315 0 289 -1 303 -19 313 -29 15 -603 14 -619 -2z m528 -318 l0 -220 -215
0 -215 0 0 220 0 220 215 0 215 0 0 -220z"/>
</g>
</svg>
