<?xml version="1.0" standalone="no"?>
<!DOCTYPE svg PUBLIC "-//W3C//DTD SVG 20010904//EN"
 "http://www.w3.org/TR/2001/REC-SVG-20010904/DTD/svg10.dtd">
<svg version="1.0" xmlns="http://www.w3.org/2000/svg"
 width="512.000000pt" height="512.000000pt" viewBox="0 0 512.000000 512.000000"
 preserveAspectRatio="xMidYMid meet">

<g transform="translate(0.000000,512.000000) scale(0.100000,-0.100000)"
fill="#000000" stroke="none">
<path d="M2387 4102 c-15 -17 -17 -78 -17 -670 l0 -652 -345 0 -345 0 0 90 0
90 51 0 c43 0 55 5 80 29 l29 29 0 129 c0 141 -6 161 -57 182 -21 8 -164 11
-526 9 l-497 -3 -27 -28 c-27 -26 -28 -33 -31 -137 l-4 -110 -48 0 c-90 0
-120 -49 -120 -197 l0 -83 -71 0 c-65 0 -73 -2 -100 -29 l-29 -29 0 -1167 c0
-781 3 -1173 10 -1186 28 -52 -114 -49 2353 -49 1762 0 2286 3 2295 12 9 9 12
441 12 1884 0 1689 -2 1874 -16 1888 -14 14 -145 16 -1298 16 -1230 0 -1284
-1 -1299 -18z m2513 -702 l0 -620 -224 0 -224 0 -62 105 c-69 117 -97 145
-144 145 -52 -1 -76 -23 -145 -136 l-66 -109 -94 -3 c-87 -3 -93 -2 -85 15 5
10 10 119 12 243 3 192 1 229 -13 256 -17 32 -62 64 -89 64 -14 0 -16 16 -16
110 0 162 -28 200 -145 200 -114 0 -145 -43 -145 -204 0 -101 -1 -106 -21
-106 -12 0 -39 -18 -61 -39 l-39 -40 3 -233 c2 -128 7 -241 12 -250 7 -16 1
-18 -74 -18 -81 0 -82 0 -74 23 4 12 9 119 11 237 4 253 0 269 -79 309 l-48
23 0 113 c0 97 -3 116 -20 137 -29 37 -71 51 -140 46 -102 -7 -130 -52 -130
-213 l-1 -90 -42 -20 c-73 -35 -78 -55 -74 -305 2 -118 7 -225 11 -237 l8 -23
-116 0 -116 0 0 620 0 620 1215 0 1215 0 0 -620z m-1910 59 c0 -130 14 -171
63 -189 65 -24 62 -12 65 -201 2 -107 -1 -189 -8 -212 -17 -58 -56 -77 -157
-77 -99 0 -127 10 -153 52 -18 30 -20 51 -20 218 0 192 4 210 42 210 10 0 32
13 50 29 l33 29 3 126 4 126 39 0 39 0 0 -111z m660 -20 c6 -143 14 -161 78
-176 l37 -9 3 -202 c2 -170 0 -206 -13 -226 -25 -38 -64 -48 -165 -45 -89 4
-92 5 -121 37 l-29 33 2 201 3 202 35 8 c19 5 45 20 58 34 20 23 22 35 22 143
0 65 3 121 7 125 4 4 23 6 43 4 l35 -3 5 -126z m-1910 -289 l0 -90 -470 0
-470 0 0 83 c0 46 3 87 7 90 3 4 215 7 470 7 l463 0 0 -90z m-170 -280 l0 -90
-465 0 -465 0 0 90 0 90 465 0 465 0 0 -90z m2779 -115 c137 -227 135 -218
139 -527 l3 -258 -251 0 -252 0 4 248 c4 224 6 253 27 312 24 70 210 391 225
387 4 -2 52 -75 105 -162z m-1979 -290 l0 -215 -970 0 -970 0 0 215 0 215 970
0 970 0 0 -215z m1573 153 c-44 -110 -53 -176 -53 -420 l0 -228 -679 0 c-373
0 -693 -3 -710 -6 l-31 -6 0 361 0 361 749 0 750 0 -26 -62z m957 -293 l0
-356 -152 3 -153 3 -5 270 c-6 288 -4 276 -65 418 -7 16 6 17 184 17 l191 0 0
-355z m-2530 -292 l-1 -118 -39 -27 c-80 -55 -150 -190 -150 -288 0 -59 18
-70 111 -70 l79 0 0 -555 0 -555 -970 0 -970 0 0 865 0 865 970 0 970 0 0
-117z m2530 -283 l0 -120 -1305 0 c-1445 0 -1320 -6 -1291 65 31 73 119 146
201 166 17 4 562 7 1213 8 l1182 1 0 -120z m-1670 -225 c0 -3 -143 -253 -317
-555 l-317 -550 -63 0 -63 0 0 555 0 555 380 0 c209 0 380 -2 380 -5z m308 -3
c-1 -5 -145 -255 -318 -555 l-315 -547 -92 0 c-51 0 -93 2 -93 5 0 3 143 253
317 555 l318 550 93 0 c52 0 92 -4 90 -8z m353 -259 c85 -147 155 -273 157
-280 3 -11 -62 -13 -347 -13 -203 0 -351 4 -351 9 0 5 70 131 156 280 l157
271 37 0 37 0 154 -267z m469 -279 c173 -300 317 -550 318 -555 2 -5 -37 -9
-90 -9 l-93 0 -315 546 c-173 300 -316 550 -318 555 -2 5 38 9 90 9 l93 0 315
-546z m540 -9 l0 -555 -48 0 -49 0 -316 549 c-175 302 -317 552 -317 555 0 3
164 6 365 6 l365 0 0 -555z m-656 -324 c69 -120 126 -221 126 -225 0 -3 -302
-6 -671 -6 -596 0 -670 2 -665 15 3 9 60 110 127 225 l121 210 418 0 418 0
126 -219z"/>
<path d="M1740 2500 c-23 -23 -24 -33 -10 -61 12 -22 59 -26 78 -7 17 17 15
54 -4 72 -21 21 -40 20 -64 -4z"/>
<path d="M2052 2513 c-44 -18 -32 -93 16 -93 35 0 52 16 52 52 0 36 -32 56
-68 41z"/>
<path d="M1245 2004 c-38 -8 -107 -33 -153 -54 -189 -90 -314 -227 -385 -423
-42 -115 -49 -281 -18 -412 34 -144 90 -245 191 -346 73 -73 101 -94 180 -132
133 -64 221 -81 379 -74 92 4 143 11 191 27 102 35 194 87 265 153 163 149
242 344 232 577 -8 199 -74 349 -217 491 -171 168 -426 243 -665 193z m375
-127 c91 -32 195 -102 256 -171 124 -140 182 -379 138 -566 -41 -176 -173
-341 -335 -418 -108 -51 -172 -66 -284 -65 -176 1 -311 58 -440 188 -158 157
-216 355 -170 577 48 229 210 402 440 470 47 14 89 17 190 15 112 -3 141 -7
205 -30z"/>
<path d="M1301 1759 c-114 -22 -243 -114 -312 -220 -85 -132 -92 -322 -19
-470 81 -166 235 -260 427 -260 172 -1 311 69 397 201 57 85 77 146 83 253 7
109 -13 193 -67 275 -114 175 -310 260 -509 221z m177 -104 c110 -15 231 -114
272 -223 98 -262 -77 -524 -350 -524 -157 0 -285 85 -353 232 -31 67 -30 214
2 292 29 76 104 156 175 191 54 27 150 47 191 41 11 -1 39 -5 63 -9z"/>
</g>
</svg>
