<?xml version="1.0" standalone="no"?>
<!DOCTYPE svg PUBLIC "-//W3C//DTD SVG 20010904//EN"
 "http://www.w3.org/TR/2001/REC-SVG-20010904/DTD/svg10.dtd">
<svg version="1.0" xmlns="http://www.w3.org/2000/svg"
 width="512.000000pt" height="512.000000pt" viewBox="0 0 512.000000 512.000000"
 preserveAspectRatio="xMidYMid meet">

<g transform="translate(0.000000,512.000000) scale(0.100000,-0.100000)"
fill="#000000" stroke="none">
<path d="M2290 5095 c-172 -38 -337 -164 -412 -315 -38 -76 -68 -173 -68 -221
0 -22 -120 -133 -812 -748 -447 -397 -824 -736 -837 -752 -65 -80 -18 -218 81
-238 l33 -7 3 -381 2 -380 -35 -28 c-84 -64 -141 -199 -129 -307 6 -57 46
-152 84 -198 30 -37 13 -78 -44 -108 -81 -43 -104 -127 -71 -257 22 -82 52
-140 105 -199 l46 -51 -9 -57 c-9 -54 0 -114 28 -205 6 -20 4 -23 -17 -23 -40
0 -125 -49 -166 -95 -60 -68 -72 -120 -72 -307 0 -155 1 -159 25 -183 l24 -25
1669 0 1669 0 27 21 c33 26 36 79 6 109 -20 20 -33 20 -1645 20 l-1625 0 0
100 c0 118 14 161 62 190 33 20 44 20 2348 20 2304 0 2315 0 2348 -20 48 -29
62 -72 62 -190 l0 -100 -629 0 c-346 0 -637 -3 -646 -6 -8 -4 -22 -19 -30 -34
-19 -36 -4 -83 31 -99 18 -8 217 -11 700 -11 l675 0 25 25 26 26 -4 177 c-3
169 -4 179 -30 228 -42 80 -141 153 -207 154 -20 0 -22 4 -16 23 29 93 37 151
28 208 l-9 58 37 37 c72 70 129 211 129 317 0 66 -31 119 -86 149 -57 30 -74
71 -44 108 38 46 78 141 84 198 12 108 -45 243 -129 307 l-35 28 2 380 3 381
33 7 c88 18 137 127 97 213 -10 20 -320 303 -840 765 -705 626 -825 737 -825
760 0 47 -29 144 -65 216 -70 139 -196 248 -350 301 -77 27 -88 28 -310 31
-172 2 -246 -1 -295 -12z m519 -150 c136 -33 248 -122 305 -247 19 -40 37 -85
40 -100 l6 -28 -600 0 -600 0 6 28 c3 15 21 60 39 99 57 122 163 210 295 245
88 23 415 25 509 3z m1215 -1247 c448 -398 815 -726 815 -730 1 -5 -676 -8
-1504 -8 -1492 0 -1505 0 -1525 -20 -25 -25 -26 -71 -1 -101 l19 -24 1176 -3
1176 -2 0 -420 0 -420 -32 0 c-42 0 -93 -31 -119 -72 -41 -66 -8 -237 65 -337
35 -48 36 -49 21 -84 -8 -20 -18 -61 -21 -91 l-7 -56 -51 0 c-98 0 -156 -61
-156 -165 0 -159 81 -306 207 -377 47 -27 53 -34 68 -83 8 -30 18 -61 21 -70
6 -14 -25 -15 -282 -13 l-289 3 -5 160 c-5 147 -7 163 -28 193 -41 56 -72 66
-220 70 -174 5 -214 -1 -259 -41 -56 -49 -63 -77 -63 -242 l0 -145 -110 0
-110 0 0 350 0 350 422 0 c408 0 423 1 465 21 29 14 52 35 68 63 22 38 25 54
25 151 0 97 -3 113 -25 151 -16 28 -39 49 -68 63 -43 21 -47 21 -1137 21
-1090 0 -1094 0 -1137 -21 -29 -14 -52 -35 -68 -63 -22 -38 -25 -54 -25 -151
0 -97 3 -113 25 -151 16 -28 39 -49 68 -63 42 -20 57 -21 465 -21 l422 0 0
-350 0 -350 -125 0 -125 0 0 138 c-1 186 -19 234 -105 273 -58 27 -312 27
-370 0 -86 -39 -104 -87 -105 -273 l0 -138 -271 0 c-240 0 -270 2 -265 15 3 9
13 40 21 70 15 49 21 56 68 83 126 71 207 218 207 377 0 104 -58 165 -156 165
l-51 0 -7 56 c-3 30 -13 71 -21 91 -15 35 -14 36 21 84 47 64 76 148 81 234 4
58 1 76 -16 103 -26 41 -77 72 -118 72 l-33 0 0 420 0 419 301 3 301 3 25 29
c27 31 25 66 -4 99 -15 16 -59 17 -652 17 l-636 0 27 27 c15 14 381 342 815
729 l788 703 653 0 652 1 814 -722z m-3234 -1328 c0 -384 -2 -440 -15 -440 -8
0 -15 4 -15 8 0 22 -75 92 -131 122 -47 25 -79 34 -131 38 l-68 5 0 353 0 354
180 0 180 0 0 -440z m3900 86 l0 -353 -68 -5 c-52 -4 -84 -13 -131 -38 -56
-30 -131 -100 -131 -122 0 -4 -7 -8 -15 -8 -13 0 -15 56 -15 440 l0 440 180 0
180 0 0 -354z m-4133 -527 c24 -12 54 -37 67 -56 l24 -35 -29 -43 c-26 -38
-35 -44 -78 -50 -57 -8 -152 -50 -197 -88 -18 -15 -34 -27 -38 -27 -16 0 -39
71 -40 121 -2 149 154 244 291 178z m4194 -2 c64 -34 104 -102 103 -176 -1
-50 -24 -121 -40 -121 -4 0 -20 12 -38 27 -45 38 -140 80 -197 88 -43 6 -52
12 -78 50 l-29 43 23 35 c51 74 170 99 256 54z m-3791 -125 c0 -29 -26 -110
-44 -137 l-16 -25 -40 29 c-21 15 -53 34 -70 41 -16 7 -30 16 -30 19 0 18 54
55 102 72 70 24 98 24 98 1z m3288 3 c48 -15 112 -57 112 -75 0 -4 -14 -13
-30 -20 -17 -7 -49 -26 -70 -41 l-40 -29 -16 25 c-18 27 -44 108 -44 137 0 22
20 23 88 3z m-613 -250 l0 -80 -1075 0 -1075 0 -3 69 c-2 38 -1 75 2 83 5 11
184 13 1078 11 l1073 -3 0 -80z m-2930 28 c100 -34 175 -143 175 -252 0 -44
-2 -47 -45 -70 -25 -13 -61 -41 -80 -63 -34 -37 -37 -38 -76 -29 -22 5 -42 11
-43 13 -1 1 -17 27 -35 55 -51 81 -138 146 -223 167 -16 3 -28 10 -28 14 0 19
61 102 92 126 73 55 173 70 263 39z m3896 2 c58 -21 106 -59 140 -113 16 -25
29 -49 29 -54 0 -4 -12 -11 -27 -14 -86 -21 -173 -86 -224 -167 -18 -28 -34
-54 -35 -55 -1 -2 -21 -8 -43 -13 -39 -9 -42 -8 -76 29 -19 22 -55 50 -80 63
-43 23 -45 26 -45 70 0 72 28 138 80 190 73 73 183 98 281 64z m-1941 -615 l0
-350 -100 0 -100 0 0 350 0 350 100 0 100 0 0 -350z m-2326 290 c61 -19 136
-72 136 -97 0 -5 -20 -19 -44 -30 -24 -12 -60 -36 -80 -53 -30 -26 -39 -30
-51 -20 -26 21 -65 114 -72 168 -6 51 -5 52 20 52 13 0 54 -9 91 -20z m4562
-32 c-7 -55 -46 -147 -71 -168 -12 -10 -21 -6 -51 20 -20 17 -56 41 -80 53
-24 11 -44 25 -44 30 0 5 16 25 35 43 37 34 134 72 189 73 l29 1 -7 -52z
m-3809 -98 c-10 -85 -59 -174 -109 -201 -14 -8 -20 -3 -33 28 -8 20 -32 56
-52 81 -44 54 -40 65 38 104 53 27 78 34 133 37 l29 1 -6 -50z m3079 24 c44
-18 94 -54 94 -67 0 -5 -14 -25 -31 -45 -18 -20 -40 -55 -51 -79 -16 -35 -22
-42 -36 -34 -51 27 -99 117 -109 203 l-6 51 51 -7 c28 -3 67 -13 88 -22z
m-3447 -161 c27 -17 58 -48 76 -77 51 -84 39 -200 -28 -273 -19 -22 -28 -23
-165 -23 l-144 0 -29 31 c-43 46 -65 129 -50 193 20 88 67 142 150 173 54 20
135 10 190 -24z m3916 2 c89 -52 130 -157 101 -257 -9 -31 -29 -70 -45 -87
l-29 -31 -144 0 c-137 0 -146 1 -165 23 -62 67 -77 184 -35 264 59 112 206
153 317 88z m-2730 -235 l0 -135 -135 0 -135 0 -3 124 c-1 69 0 131 2 138 4
11 35 13 138 11 l133 -3 0 -135z m1543 -2 l3 -138 -136 0 -135 0 0 133 c0 74
3 137 7 141 4 3 63 5 132 4 l126 -3 3 -137z"/>
<path d="M1954 4067 c-35 -31 -38 -82 -5 -109 22 -17 55 -18 611 -18 546 0
589 1 609 18 33 26 31 79 -3 109 l-27 23 -579 0 -579 0 -27 -23z"/>
<path d="M1340 3630 c-30 -30 -27 -83 6 -109 27 -21 28 -21 1214 -21 1186 0
1187 0 1214 21 33 26 36 79 6 109 -20 20 -33 20 -1220 20 -1187 0 -1200 0
-1220 -20z"/>
</g>
</svg>
