<?xml version="1.0" standalone="no"?>
<!DOCTYPE svg PUBLIC "-//W3C//DTD SVG 20010904//EN"
 "http://www.w3.org/TR/2001/REC-SVG-20010904/DTD/svg10.dtd">
<svg version="1.0" xmlns="http://www.w3.org/2000/svg"
 width="512.000000pt" height="512.000000pt" viewBox="0 0 512.000000 512.000000"
 preserveAspectRatio="xMidYMid meet">

<g transform="translate(0.000000,512.000000) scale(0.100000,-0.100000)"
fill="#000000" stroke="none">
<path d="M3597 5104 c-162 -29 -326 -115 -445 -233 -88 -86 -117 -129 -224
-334 -67 -127 -88 -176 -83 -194 7 -30 46 -49 70 -35 10 5 60 89 111 187 52
97 115 204 141 236 90 111 211 194 358 246 l80 28 623 3 622 3 0 -150 0 -150
-608 -3 -608 -3 -75 -37 c-126 -62 -179 -127 -298 -365 -28 -57 -51 -112 -51
-123 0 -11 11 -27 25 -36 42 -27 66 -1 147 159 85 168 138 230 231 273 l62 29
625 3 c560 2 626 4 642 19 16 15 18 37 18 238 0 202 -2 223 -18 238 -17 15
-75 17 -643 16 -490 -1 -641 -4 -702 -15z"/>
<path d="M2480 4311 c-96 -31 -127 -68 -214 -257 l-74 -159 -438 -37 c-242
-20 -489 -39 -550 -42 -178 -8 -222 -36 -296 -192 -58 -125 -70 -174 -57 -234
13 -57 49 -119 86 -146 15 -11 640 -303 1388 -649 1346 -621 1361 -628 1425
-629 74 0 125 21 177 76 39 40 122 215 130 273 8 63 -19 141 -70 200 -37 42
-549 750 -586 810 -12 18 -4 40 60 180 68 148 74 165 74 225 -1 72 -23 126
-72 172 -34 33 -76 53 -513 254 -356 163 -401 178 -470 155z m370 -228 c516
-237 537 -248 560 -285 32 -53 25 -90 -41 -237 -34 -75 -65 -139 -68 -144 -4
-4 -130 49 -280 118 -183 84 -280 124 -293 119 -30 -9 -44 -49 -27 -75 9 -13
123 -71 301 -153 l287 -132 231 -323 c128 -177 231 -323 229 -325 -5 -4 -2328
1068 -2324 1073 2 1 181 18 399 37 l395 34 127 -61 c132 -62 177 -70 197 -38
5 9 7 27 4 41 -5 20 -29 36 -126 81 l-120 56 14 33 c7 18 38 86 68 150 61 128
90 158 157 158 23 0 125 -42 310 -127z m-355 -981 c715 -330 1326 -612 1357
-627 113 -53 124 -117 48 -271 -53 -109 -81 -134 -150 -134 -37 0 -2710 1229
-2749 1264 -34 30 -53 82 -45 120 3 17 26 73 50 123 50 105 88 137 154 129 19
-2 620 -274 1335 -604z"/>
<path d="M1122 2978 c-20 -25 -112 -205 -112 -220 0 -22 33 -48 62 -48 23 0
33 13 82 105 31 57 56 113 56 123 0 40 -64 69 -88 40z"/>
<path d="M908 2553 c-9 -10 -37 -61 -63 -113 -38 -75 -46 -99 -39 -119 12 -32
46 -44 73 -24 20 13 121 200 121 223 0 17 -39 50 -58 50 -11 0 -26 -8 -34 -17z"/>
<path d="M1466 2415 c-31 -57 -56 -113 -56 -123 0 -29 35 -55 64 -48 19 5 37
28 71 90 64 119 72 142 50 166 -10 11 -31 20 -46 20 -24 0 -33 -11 -83 -105z"/>
<path d="M2123 2457 c-10 -13 -38 -65 -62 -115 -39 -80 -43 -94 -33 -117 9
-18 19 -25 41 -25 39 0 48 10 105 128 48 98 49 101 32 126 -21 33 -58 34 -83
3z"/>
<path d="M708 2140 c-22 -13 -118 -195 -118 -224 0 -25 28 -56 52 -56 22 0 40
24 92 121 52 96 57 130 24 153 -26 18 -27 19 -50 6z"/>
<path d="M1296 2078 c-8 -13 -33 -62 -57 -109 -45 -92 -48 -132 -9 -144 41
-13 60 5 110 106 51 101 59 136 38 157 -20 20 -66 14 -82 -10z"/>
<path d="M1918 2043 c-35 -41 -109 -196 -106 -221 4 -32 43 -55 70 -41 27 14
118 189 118 226 0 49 -52 71 -82 36z"/>
<path d="M2522 1998 c-20 -26 -102 -198 -102 -216 0 -30 35 -55 65 -48 20 5
36 29 81 117 53 106 54 112 39 135 -17 26 -65 33 -83 12z"/>
<path d="M3133 1947 c-10 -13 -38 -65 -62 -115 -39 -80 -43 -94 -33 -117 14
-30 60 -35 85 -7 28 31 106 203 100 220 -15 45 -62 54 -90 19z"/>
<path d="M478 1703 c-9 -10 -37 -60 -63 -112 -39 -79 -45 -98 -36 -117 14 -30
56 -42 79 -21 9 9 39 61 66 116 44 88 48 103 38 125 -14 31 -60 36 -84 9z"/>
<path d="M1093 1668 c-6 -7 -34 -59 -63 -115 -52 -100 -53 -103 -36 -127 11
-18 25 -26 46 -26 27 0 33 8 84 104 31 57 56 112 56 123 0 41 -64 70 -87 41z"/>
<path d="M1717 1633 c-12 -3 -39 -46 -72 -114 -47 -95 -53 -113 -43 -134 13
-30 40 -40 68 -25 22 12 120 198 120 229 0 18 -36 53 -50 50 -3 -1 -13 -3 -23
-6z"/>
<path d="M2312 1578 c-24 -31 -102 -200 -102 -222 0 -30 32 -50 65 -42 17 4
37 32 74 105 52 101 61 137 39 159 -16 16 -63 15 -76 0z"/>
<path d="M2932 1543 c-18 -7 -112 -198 -112 -228 0 -34 41 -61 69 -45 23 12
121 198 121 228 0 35 -42 60 -78 45z"/>
<path d="M237 1238 c-57 -104 -77 -146 -77 -166 0 -40 64 -69 87 -39 6 6 34
58 63 114 52 100 53 103 36 127 -11 18 -25 26 -45 26 -25 0 -34 -8 -64 -62z"/>
<path d="M873 1237 c-10 -13 -38 -65 -62 -115 -39 -80 -43 -94 -33 -117 9 -18
19 -25 41 -25 37 0 53 20 110 138 43 88 44 91 27 116 -21 33 -58 34 -83 3z"/>
<path d="M1507 1212 c-24 -5 -130 -217 -122 -243 9 -29 47 -44 74 -30 12 7 44
57 72 114 41 81 50 106 43 126 -10 25 -38 40 -67 33z"/>
<path d="M2098 1153 c-21 -23 -108 -199 -108 -216 0 -20 33 -47 57 -47 11 0
27 8 35 18 21 22 108 198 108 215 0 20 -33 47 -57 47 -11 0 -27 -8 -35 -17z"/>
<path d="M2722 1123 c-22 -9 -124 -222 -117 -244 9 -29 47 -44 74 -30 21 12
121 197 121 226 0 19 -35 55 -52 54 -7 0 -19 -3 -26 -6z"/>
<path d="M1266 768 c-8 -13 -33 -62 -57 -109 -31 -64 -40 -93 -35 -112 7 -28
42 -44 71 -34 19 8 115 199 115 230 0 31 -18 47 -52 47 -18 0 -33 -8 -42 -22z"/>
<path d="M1888 733 c-23 -27 -108 -200 -108 -221 0 -41 62 -58 93 -24 28 31
106 203 100 220 -14 41 -59 54 -85 25z"/>
<path d="M2513 699 c-24 -9 -123 -192 -123 -227 0 -30 35 -55 65 -48 35 9 141
216 125 246 -15 28 -41 39 -67 29z"/>
<path d="M2282 268 c-24 -31 -102 -200 -102 -222 0 -30 32 -50 66 -42 18 5 36
30 74 106 51 101 59 137 38 158 -16 16 -63 15 -76 0z"/>
</g>
</svg>
