<?xml version="1.0" standalone="no"?>
<!DOCTYPE svg PUBLIC "-//W3C//DTD SVG 20010904//EN"
 "http://www.w3.org/TR/2001/REC-SVG-20010904/DTD/svg10.dtd">
<svg version="1.0" xmlns="http://www.w3.org/2000/svg"
 width="512.000000pt" height="512.000000pt" viewBox="0 0 512.000000 512.000000"
 preserveAspectRatio="xMidYMid meet">

<g transform="translate(0.000000,512.000000) scale(0.100000,-0.100000)"
fill="#000000" stroke="none">
<path d="M1265 5100 c-17 -18 -13 -62 89 -1072 59 -579 106 -1059 106 -1065 0
-10 -55 -13 -243 -13 -224 0 -245 -2 -260 -18 -22 -24 -21 -55 1 -75 17 -16
143 -17 1604 -17 1523 0 1586 1 1601 18 22 24 21 55 -1 75 -16 15 -49 17 -260
17 -187 0 -242 3 -242 13 0 6 47 486 106 1065 102 1010 106 1054 89 1072 -18
20 -41 20 -1295 20 -1254 0 -1277 0 -1295 -20z m2485 -117 c0 -35 -20 -241
-26 -270 l-4 -23 -1160 0 -1160 0 -4 23 c-6 29 -26 235 -26 270 l0 27 1190 0
1190 0 0 -27z m-40 -414 c0 -6 -36 -366 -80 -800 -44 -435 -80 -796 -80 -804
0 -13 -131 -15 -990 -15 -859 0 -990 2 -990 15 0 8 -36 369 -80 804 -44 434
-80 794 -80 800 0 8 335 11 1150 11 815 0 1150 -3 1150 -11z"/>
<path d="M1686 4425 c-154 -55 -196 -267 -75 -382 67 -63 172 -82 254 -44 46
20 112 89 121 125 6 24 7 24 146 28 124 3 141 5 154 22 18 26 18 51 -2 70 -12
13 -41 16 -150 16 l-134 0 -16 40 c-20 49 -94 116 -143 130 -49 14 -108 12
-155 -5z m144 -110 c16 -8 34 -24 40 -35 10 -19 8 -20 -38 -20 -36 0 -54 -5
-67 -20 -37 -41 7 -90 81 -90 31 0 30 -14 -2 -39 -33 -26 -104 -28 -140 -5
-51 34 -68 107 -39 164 29 55 105 76 165 45z"/>
<path d="M954 2663 c-30 -30 -7 -275 45 -480 100 -391 357 -756 687 -975 l91
-60 -9 -42 c-89 -393 -228 -1035 -228 -1051 0 -12 8 -29 18 -38 17 -16 101
-17 1004 -17 941 0 986 1 1001 18 10 10 17 27 17 38 0 15 -143 674 -228 1050
l-9 42 91 60 c351 233 617 630 706 1053 23 111 40 251 40 331 0 98 179 88
-1620 88 -1486 0 -1590 -1 -1606 -17z m3111 -165 c-22 -251 -108 -515 -237
-726 -115 -188 -298 -375 -484 -494 -61 -39 -230 -122 -299 -146 -315 -110
-655 -110 -970 0 -69 24 -238 107 -299 146 -186 119 -369 306 -484 494 -129
211 -215 475 -237 726 l-6 72 1511 0 1511 0 -6 -72z m-1955 -1503 c340 -86
722 -69 1068 49 39 14 72 24 72 22 0 -4 199 -904 206 -933 l6 -23 -902 0 -902
0 6 23 c7 29 206 929 206 933 0 2 33 -8 73 -22 39 -14 115 -36 167 -49z"/>
</g>
</svg>
