<?xml version="1.0" standalone="no"?>
<!DOCTYPE svg PUBLIC "-//W3C//DTD SVG 20010904//EN"
 "http://www.w3.org/TR/2001/REC-SVG-20010904/DTD/svg10.dtd">
<svg version="1.0" xmlns="http://www.w3.org/2000/svg"
 width="512.000000pt" height="512.000000pt" viewBox="0 0 512.000000 512.000000"
 preserveAspectRatio="xMidYMid meet">

<g transform="translate(0.000000,512.000000) scale(0.100000,-0.100000)"
fill="#000000" stroke="none">
<path d="M580 3285 l0 -1575 805 0 805 0 0 -725 0 -725 139 0 c77 0 142 4 146
9 3 6 309 224 680 487 l675 477 0 1217 0 1218 -625 442 c-344 243 -625 444
-625 446 0 2 378 4 840 4 l840 0 0 -2150 0 -2150 140 0 140 0 0 2300 0 2300
-1980 0 -1980 0 0 -1575z m3870 -725 l0 -2220 -55 0 -55 0 0 2155 0 2155 -975
0 -975 0 0 -2155 0 -2155 -55 0 -55 0 0 725 0 725 -805 0 -805 0 0 1495 0
1495 1890 0 1890 0 0 -2220z m-1324 1499 l624 -441 0 -1167 0 -1167 -626 -443
c-344 -243 -632 -445 -640 -448 -12 -4 -14 275 -14 2057 0 1887 1 2062 16
2056 9 -3 297 -205 640 -447z"/>
<path d="M780 3290 l0 -1360 750 0 750 0 0 1360 0 1360 -750 0 -750 0 0 -1360z
m1410 -5 l0 -1275 -662 2 -663 3 -3 1273 -2 1272 665 0 665 0 0 -1275z"/>
<path d="M1462 3607 l-192 -193 33 -32 33 -32 192 193 192 193 -33 32 -33 32
-192 -193z"/>
<path d="M1415 3260 l-110 -110 33 -32 32 -33 112 112 112 112 -29 31 c-16 16
-31 30 -35 30 -3 0 -55 -49 -115 -110z"/>
<path d="M1497 3062 l-228 -228 31 -29 31 -29 227 227 227 227 -30 30 -30 30
-228 -228z"/>
<path d="M3390 2510 l0 -100 28 -5 c66 -14 62 -17 62 36 0 56 2 56 78 34 l52
-16 0 -169 0 -169 -37 -10 c-21 -5 -50 -13 -65 -17 l-28 -6 0 112 0 112 -37
-7 c-21 -4 -41 -9 -45 -11 -9 -6 -11 -298 -2 -306 3 -3 69 15 147 41 l142 48
3 220 2 221 -137 46 c-76 25 -144 46 -151 46 -9 0 -12 -27 -12 -100z"/>
<path d="M3310 2359 l0 -42 93 7 c122 9 177 17 177 26 0 5 -236 50 -262 50 -5
0 -8 -19 -8 -41z"/>
</g>
</svg>
