<svg width="50" height="51" viewBox="0 0 50 51" fill="none" xmlns="http://www.w3.org/2000/svg">
<g clip-path="url(#clip0_279_81)">
<path fill-rule="evenodd" clip-rule="evenodd" d="M0 33.7124C0 32.4692 0.49386 31.2769 1.37294 30.3978C2.25201 29.5188 3.4443 29.0249 4.6875 29.0249H7.8125C9.0557 29.0249 10.248 29.5188 11.1271 30.3978C12.0061 31.2769 12.5 32.4692 12.5 33.7124V36.8374C12.5 38.0806 12.0061 39.2729 11.1271 40.152C10.248 41.031 9.0557 41.5249 7.8125 41.5249H4.6875C3.4443 41.5249 2.25201 41.031 1.37294 40.152C0.49386 39.2729 0 38.0806 0 36.8374L0 33.7124ZM4.6875 32.1499C4.2731 32.1499 3.87567 32.3145 3.58265 32.6075C3.28962 32.9006 3.125 33.298 3.125 33.7124V36.8374C3.125 37.2518 3.28962 37.6492 3.58265 37.9423C3.87567 38.2353 4.2731 38.3999 4.6875 38.3999H7.8125C8.2269 38.3999 8.62433 38.2353 8.91735 37.9423C9.21038 37.6492 9.375 37.2518 9.375 36.8374V33.7124C9.375 33.298 9.21038 32.9006 8.91735 32.6075C8.62433 32.3145 8.2269 32.1499 7.8125 32.1499H4.6875ZM37.5 33.7124C37.5 32.4692 37.9939 31.2769 38.8729 30.3978C39.752 29.5188 40.9443 29.0249 42.1875 29.0249H45.3125C46.5557 29.0249 47.748 29.5188 48.6271 30.3978C49.5061 31.2769 50 32.4692 50 33.7124V36.8374C50 38.0806 49.5061 39.2729 48.6271 40.152C47.748 41.031 46.5557 41.5249 45.3125 41.5249H42.1875C40.9443 41.5249 39.752 41.031 38.8729 40.152C37.9939 39.2729 37.5 38.0806 37.5 36.8374V33.7124ZM42.1875 32.1499C41.7731 32.1499 41.3757 32.3145 41.0826 32.6075C40.7896 32.9006 40.625 33.298 40.625 33.7124V36.8374C40.625 37.2518 40.7896 37.6492 41.0826 37.9423C41.3757 38.2353 41.7731 38.3999 42.1875 38.3999H45.3125C45.7269 38.3999 46.1243 38.2353 46.4174 37.9423C46.7104 37.6492 46.875 37.2518 46.875 36.8374V33.7124C46.875 33.298 46.7104 32.9006 46.4174 32.6075C46.1243 32.3145 45.7269 32.1499 45.3125 32.1499H42.1875ZM18.75 14.9624C18.75 13.7192 19.2439 12.5269 20.1229 11.6478C21.002 10.7688 22.1943 10.2749 23.4375 10.2749H26.5625C27.8057 10.2749 28.998 10.7688 29.8771 11.6478C30.7561 12.5269 31.25 13.7192 31.25 14.9624V18.0874C31.25 19.3306 30.7561 20.5229 29.8771 21.402C28.998 22.281 27.8057 22.7749 26.5625 22.7749H23.4375C22.1943 22.7749 21.002 22.281 20.1229 21.402C19.2439 20.5229 18.75 19.3306 18.75 18.0874V14.9624ZM23.4375 13.3999C23.0231 13.3999 22.6257 13.5645 22.3326 13.8575C22.0396 14.1506 21.875 14.548 21.875 14.9624V18.0874C21.875 18.5018 22.0396 18.8992 22.3326 19.1923C22.6257 19.4853 23.0231 19.6499 23.4375 19.6499H26.5625C26.9769 19.6499 27.3743 19.4853 27.6674 19.1923C27.9604 18.8992 28.125 18.5018 28.125 18.0874V14.9624C28.125 14.548 27.9604 14.1506 27.6674 13.8575C27.3743 13.5645 26.9769 13.3999 26.5625 13.3999H23.4375Z" fill="#D35827"/>
<path d="M18.7501 14.9624H5.83133C5.48737 14.3666 4.95644 13.901 4.32089 13.6378C3.68533 13.3745 2.98067 13.3283 2.31619 13.5064C1.65171 13.6844 1.06455 14.0768 0.645771 14.6225C0.226992 15.1683 0 15.837 0 16.5249C0 17.2128 0.226992 17.8815 0.645771 18.4273C1.06455 18.973 1.65171 19.3654 2.31619 19.5434C2.98067 19.7215 3.68533 19.6753 4.32089 19.412C4.95644 19.1488 5.48737 18.6832 5.83133 18.0874H14.1688C10.1446 20.6281 7.13715 24.4979 5.66883 29.0249H7.81258C8.19695 29.0249 8.57508 29.0718 8.93133 29.1593C9.79688 26.8935 11.1308 24.8358 12.8459 23.1207C14.561 21.4056 16.6186 20.0717 18.8845 19.2062C18.7949 18.84 18.7498 18.4644 18.7501 18.0874V14.9624ZM31.1157 19.2062C31.2053 18.84 31.2504 18.4644 31.2501 18.0874V14.9624H44.1688C44.5128 14.3666 45.0437 13.901 45.6793 13.6378C46.3148 13.3745 47.0195 13.3283 47.684 13.5064C48.3484 13.6844 48.9356 14.0768 49.3544 14.6225C49.7732 15.1683 50.0002 15.837 50.0002 16.5249C50.0002 17.2128 49.7732 17.8815 49.3544 18.4273C48.9356 18.973 48.3484 19.3654 47.684 19.5434C47.0195 19.7215 46.3148 19.6753 45.6793 19.412C45.0437 19.1488 44.5128 18.6832 44.1688 18.0874H35.8313C39.8556 20.6281 42.863 24.4979 44.3313 29.0249H42.1876C41.8032 29.0249 41.4282 29.0718 41.0688 29.1593C40.2033 26.8935 38.8694 24.8358 37.1543 23.1207C35.4392 21.4056 33.3815 20.0717 31.1157 19.2062Z" fill="#D35827"/>
</g>
<defs>
<clipPath id="clip0_279_81">
<rect width="50" height="50" fill="white" transform="translate(0 0.899902)"/>
</clipPath>
</defs>
</svg>
