<svg width="51" height="51" viewBox="0 0 51 51" fill="none" xmlns="http://www.w3.org/2000/svg">
<g clip-path="url(#clip0_279_79)">
<path d="M24.5585 1.10614C24.7945 0.971308 25.0617 0.900391 25.3335 0.900391C25.6053 0.900391 25.8725 0.971308 26.1085 1.10614L37.8272 7.80301C38.0664 7.93962 38.2652 8.137 38.4035 8.37518C38.5418 8.61335 38.6147 8.88385 38.6147 9.15926V21.6436L49.546 27.8936C49.7842 28.0297 49.9824 28.2261 50.1207 28.4631C50.2589 28.7001 50.3323 28.9693 50.3335 29.2436V42.6374C50.3334 42.9128 50.2605 43.1833 50.1222 43.4215C49.9839 43.6596 49.7851 43.857 49.546 43.9936L37.8272 50.6905C37.5912 50.8253 37.3241 50.8963 37.0522 50.8963C36.7804 50.8963 36.5133 50.8253 36.2772 50.6905L25.3335 44.4405L14.3897 50.6936C14.1537 50.8285 13.8866 50.8994 13.6147 50.8994C13.3429 50.8994 13.0758 50.8285 12.8397 50.6936L1.121 43.9968C0.881849 43.8602 0.683058 43.6628 0.544763 43.4246C0.406469 43.1864 0.333585 42.9159 0.333496 42.6405L0.333496 29.2468C0.333585 28.9713 0.406469 28.7009 0.544763 28.4627C0.683058 28.2245 0.881849 28.0271 1.121 27.8905L12.0522 21.6436V9.15926C12.0523 8.88385 12.1252 8.61335 12.2635 8.37518C12.4018 8.137 12.6006 7.93962 12.8397 7.80301L24.5585 1.10614ZM13.6147 24.3499L5.046 29.2468L13.6147 34.1436L22.1835 29.2468L13.6147 24.3499ZM23.771 31.9405L15.1772 36.8499V46.6436L23.771 41.7343V31.9405ZM26.896 41.7343L35.4897 46.6436V36.8499L26.896 31.9405V41.7343ZM28.4835 29.2468L37.0522 34.1436L45.621 29.2468L37.0522 24.3499L28.4835 29.2468ZM35.4897 21.6436V11.8499L26.896 16.7624V26.5561L35.4897 21.6436ZM23.771 26.5561V16.7624L15.1772 11.8499V21.6436L23.771 26.5561ZM16.7647 9.15926L25.3335 14.0561L33.9022 9.15926L25.3335 4.26239L16.7647 9.15926ZM47.2085 31.9405L38.6147 36.8499V46.6436L47.2085 41.7343V31.9405ZM12.0522 46.6436V36.8499L3.4585 31.9405V41.7343L12.0522 46.6436Z" fill="#D35827"/>
</g>
<defs>
<clipPath id="clip0_279_79">
<rect width="50" height="50" fill="white" transform="translate(0.333496 0.899902)"/>
</clipPath>
</defs>
</svg>
