<svg width="51" height="51" viewBox="0 0 51 51" fill="none" xmlns="http://www.w3.org/2000/svg">
<g clip-path="url(#clip0_279_75)">
<path d="M19.4165 10.2749C19.4165 12.7613 18.4288 15.1459 16.6706 16.904C14.9125 18.6622 12.5279 19.6499 10.0415 19.6499C7.5551 19.6499 5.17053 18.6622 3.41238 16.904C1.65422 15.1459 0.666504 12.7613 0.666504 10.2749C0.666504 7.7885 1.65422 5.40393 3.41238 3.64578C5.17053 1.88762 7.5551 0.899902 10.0415 0.899902C12.5279 0.899902 14.9125 1.88762 16.6706 3.64578C18.4288 5.40393 19.4165 7.7885 19.4165 10.2749ZM3.7915 10.2749C3.7915 11.9325 4.44998 13.5222 5.62209 14.6943C6.79419 15.8664 8.3839 16.5249 10.0415 16.5249C11.6991 16.5249 13.2888 15.8664 14.4609 14.6943C15.633 13.5222 16.2915 11.9325 16.2915 10.2749C16.2915 8.6173 15.633 7.02759 14.4609 5.85548C13.2888 4.68338 11.6991 4.0249 10.0415 4.0249C8.3839 4.0249 6.79419 4.68338 5.62209 5.85548C4.44998 7.02759 3.7915 8.6173 3.7915 10.2749Z" fill="#D35827"/>
<path d="M28.7915 19.6499H30.354C31.8699 19.6497 33.3342 20.2005 34.4743 21.1997C35.6143 22.1988 36.3523 23.5783 36.5509 25.0812L46.2696 20.7624C46.7453 20.5504 47.2665 20.4607 47.7857 20.5014C48.3049 20.5421 48.8057 20.7119 49.2426 20.9954C49.6794 21.2789 50.0385 21.6671 50.2872 22.1247C50.5359 22.5823 50.6663 23.0947 50.6665 23.6155V46.9343C50.666 47.4547 50.5356 47.9667 50.2871 48.4239C50.0386 48.8811 49.6799 49.269 49.2434 49.5525C48.807 49.8359 48.3067 50.0058 47.7879 50.0468C47.2691 50.0878 46.7483 49.9987 46.2728 49.7874L36.5509 45.4687C36.3523 46.9715 35.6143 48.351 34.4743 49.3501C33.3342 50.3493 31.8699 50.9001 30.354 50.8999H6.9165C5.2589 50.8999 3.66919 50.2414 2.49709 49.0693C1.32498 47.8972 0.666504 46.3075 0.666504 44.6499V25.8999C0.666504 24.2423 1.32498 22.6526 2.49709 21.4805C3.66919 20.3084 5.2589 19.6499 6.9165 19.6499H28.7915ZM47.5415 46.9312V23.6187L36.604 28.478V42.0718L47.5415 46.9343V46.9312ZM3.7915 25.8999V44.6499C3.7915 45.4787 4.12074 46.2736 4.7068 46.8596C5.29285 47.4457 6.0877 47.7749 6.9165 47.7749H30.354C31.1828 47.7749 31.9777 47.4457 32.5637 46.8596C33.1498 46.2736 33.479 45.4787 33.479 44.6499V25.8999C33.479 25.0711 33.1498 24.2762 32.5637 23.6902C31.9777 23.1041 31.1828 22.7749 30.354 22.7749H6.9165C6.0877 22.7749 5.29285 23.1041 4.7068 23.6902C4.12074 24.2762 3.7915 25.0711 3.7915 25.8999Z" fill="#D35827"/>
<path d="M28.7915 19.6499C31.2779 19.6499 33.6625 18.6622 35.4206 16.904C37.1788 15.1459 38.1665 12.7613 38.1665 10.2749C38.1665 7.7885 37.1788 5.40393 35.4206 3.64578C33.6625 1.88762 31.2779 0.899902 28.7915 0.899902C26.3051 0.899902 23.9205 1.88762 22.1624 3.64578C20.4042 5.40393 19.4165 7.7885 19.4165 10.2749C19.4165 12.7613 20.4042 15.1459 22.1624 16.904C23.9205 18.6622 26.3051 19.6499 28.7915 19.6499ZM22.5415 10.2749C22.5415 8.6173 23.2 7.02759 24.3721 5.85548C25.5442 4.68338 27.1339 4.0249 28.7915 4.0249C30.4491 4.0249 32.0388 4.68338 33.2109 5.85548C34.383 7.02759 35.0415 8.6173 35.0415 10.2749C35.0415 11.9325 34.383 13.5222 33.2109 14.6943C32.0388 15.8664 30.4491 16.5249 28.7915 16.5249C27.1339 16.5249 25.5442 15.8664 24.3721 14.6943C23.2 13.5222 22.5415 11.9325 22.5415 10.2749Z" fill="#D35827"/>
</g>
<defs>
<clipPath id="clip0_279_75">
<rect width="50" height="50" fill="white" transform="translate(0.666504 0.899902)"/>
</clipPath>
</defs>
</svg>
