<svg width="50" height="51" viewBox="0 0 50 51" fill="none" xmlns="http://www.w3.org/2000/svg">
<g clip-path="url(#clip0_279_72)">
<path d="M25 47.7749C19.1984 47.7749 13.6344 45.4702 9.53204 41.3679C5.42968 37.2655 3.125 31.7015 3.125 25.8999C3.125 20.0983 5.42968 14.5343 9.53204 10.4319C13.6344 6.32958 19.1984 4.0249 25 4.0249C30.8016 4.0249 36.3656 6.32958 40.468 10.4319C44.5703 14.5343 46.875 20.0983 46.875 25.8999C46.875 31.7015 44.5703 37.2655 40.468 41.3679C36.3656 45.4702 30.8016 47.7749 25 47.7749ZM25 50.8999C31.6304 50.8999 37.9893 48.266 42.6777 43.5776C47.3661 38.8892 50 32.5303 50 25.8999C50 19.2695 47.3661 12.9106 42.6777 8.22223C37.9893 3.53382 31.6304 0.899902 25 0.899902C18.3696 0.899902 12.0107 3.53382 7.32233 8.22223C2.63392 12.9106 0 19.2695 0 25.8999C0 32.5303 2.63392 38.8892 7.32233 43.5776C12.0107 48.266 18.3696 50.8999 25 50.8999Z" fill="#D35827"/>
<path d="M13.3906 30.7968C13.7495 30.5896 14.1759 30.5334 14.5762 30.6407C14.9765 30.7479 15.3177 31.0098 15.525 31.3687C16.4847 33.0322 17.8657 34.4135 19.5291 35.3736C21.1925 36.3337 23.0794 36.8385 25 36.8374C26.9205 36.8385 28.8074 36.3337 30.4708 35.3736C32.1342 34.4135 33.5152 33.0322 34.475 31.3687C34.5768 31.1895 34.7131 31.0323 34.8759 30.906C35.0388 30.7798 35.225 30.687 35.4239 30.633C35.6227 30.579 35.8303 30.5649 36.0347 30.5915C36.239 30.618 36.4361 30.6847 36.6145 30.7878C36.793 30.8908 36.9493 31.0281 37.0745 31.1918C37.1996 31.3555 37.2912 31.5423 37.3439 31.7415C37.3965 31.9408 37.4093 32.1484 37.3814 32.3526C37.3534 32.5568 37.2854 32.7534 37.1812 32.9312C35.9472 35.0698 34.1717 36.8456 32.0333 38.0799C29.8949 39.3142 27.469 39.9635 25 39.9624C22.5309 39.9635 20.1051 39.3142 17.9667 38.0799C15.8282 36.8456 14.0527 35.0698 12.8187 32.9312C12.6115 32.5723 12.5554 32.1458 12.6626 31.7455C12.7699 31.3453 13.0317 31.004 13.3906 30.7968ZM21.875 21.2124C21.875 23.7999 20.475 25.8999 18.75 25.8999C17.025 25.8999 15.625 23.7999 15.625 21.2124C15.625 18.6249 17.025 16.5249 18.75 16.5249C20.475 16.5249 21.875 18.6249 21.875 21.2124ZM34.375 21.2124C34.375 23.7999 32.975 25.8999 31.25 25.8999C29.525 25.8999 28.125 23.7999 28.125 21.2124C28.125 18.6249 29.525 16.5249 31.25 16.5249C32.975 16.5249 34.375 18.6249 34.375 21.2124Z" fill="#D35827"/>
</g>
<defs>
<clipPath id="clip0_279_72">
<rect width="50" height="50" fill="white" transform="translate(0 0.899902)"/>
</clipPath>
</defs>
</svg>
